<svg xmlns="http://www.w3.org/2000/svg" viewBox="0 0 88.888 89.35">
  <g id="Groupe_92" data-name="Groupe 92" transform="translate(0)">
    <rect id="Rectangle_24" data-name="Rectangle 24" width="88.888" height="88.848" rx="44.424" transform="translate(0)" fill="#7fa5ad"/>
    <path id="Intersection_3" data-name="Intersection 3" d="M0,28.875C1.46,15,10.717,13.888,10.717,13.888c1.091,0,1.79-1.393,2.252-3.509.077-.325.135-.662.188-1.026.1-.6.187-1.232.248-1.892.038-.4.076-.8.113-1.208.165-2.005.212-4.186.212-6.253,0,0,2.4.236,4.341.236V32.81A44.251,44.251,0,0,1,0,28.875Z" transform="translate(26.118 56.038)" fill="#dcc5a1" stroke="rgba(0,0,0,0)" stroke-miterlimit="10" stroke-width="1"/>
    <path id="Intersection_2" data-name="Intersection 2" d="M.234,32.81H0V.236H.035C1.974.236,4.387,0,4.387,0c0,2.056.05,4.208.212,6.2.038.4.076.8.111,1.184.076.684.152,1.332.252,1.942v.014c.038.274.088.524.14.769.459,2.257,1.188,3.775,2.311,3.775,0,0,9.345,1.124,10.74,15.179A44.27,44.27,0,0,1,.275,32.81Z" transform="translate(44.19 56.038)" fill="#edd9b4" stroke="rgba(0,0,0,0)" stroke-miterlimit="10" stroke-width="1"/>
    <path id="Tracé_1346" data-name="Tracé 1346" d="M48.711,65.3v.014a5.76,5.76,0,0,1-4.938,2.676H43.75a6.232,6.232,0,0,1-4.914-2.667c.1-.6.187-1.232.248-1.892.038-.4.076-.8.114-1.207a19.56,19.56,0,0,0,4.5.583h.05a18.4,18.4,0,0,0,4.6-.633c.038.4.076.8.111,1.184C48.535,64.046,48.611,64.694,48.711,65.3Z" transform="translate(0.44 0.063)" fill="#bc9f82" opacity="0.7"/>
    <path id="Intersection_1" data-name="Intersection 1" d="M18.333,21.092A44.271,44.271,0,0,1,0,17.144C1.268,5.122,8.386,2.693,10.26,2.26c-.011.054,1.258-1.342,2-2.188A.588.588,0,0,0,12.334,0l.273,1.266,5.487,2.65,5.569-2.846L23.85,0a.969.969,0,0,0,.12.127,13.236,13.236,0,0,1,1.278,1.728,1.255,1.255,0,0,0,.685.405c1.891.436,9.082,2.89,10.286,15.1a44.267,44.267,0,0,1-17.846,3.73Z" transform="translate(26.091 67.757)" fill="#771819" stroke="rgba(0,0,0,0)" stroke-miterlimit="10" stroke-width="1"/>
    <path id="Tracé_1348" data-name="Tracé 1348" d="M50.579,68.479c-.27-.691-.925-1.338-1.159-1.89-.4-.913-.76-1.722-.76-1.722a46.868,46.868,0,0,1-1.439,4.75s-4.242,2.028-3.575,2.169,3.809,4.1,4.71,5.148.754,2.016.988.6S51.3,70.332,50.579,68.479Z" transform="translate(0.44 0.063)" fill="#fdfdfd"/>
    <path id="Tracé_1349" data-name="Tracé 1349" d="M40.288,69.617a47.66,47.66,0,0,1-1.439-4.75s-.363.809-.758,1.722c-.237.552-.892,1.2-1.164,1.89-.719,1.853,1,7.642,1.237,9.057s.085.443.983-.6,3.829-5,4.5-5.148S40.288,69.617,40.288,69.617Z" transform="translate(0.44 0.063)" fill="#fdfdfd"/>
    <path id="Tracé_1350" data-name="Tracé 1350" d="M43.8,18.735c-18.882,0-18.987,15.752-18.151,26.059-1.292-2.444-5.124-1.687-4.811,2.16.3,3.71,5.715,5.627,5.636,5.2C28.025,60.632,36.911,65.534,43.8,65.534c.046,0,.1-.008.143-.008V18.736Z" transform="translate(0.44 0.063)" fill="#ccad8b"/>
    <path id="Tracé_1351" data-name="Tracé 1351" d="M22.046,45.327a1.789,1.789,0,0,1,2.726-.518,1.551,1.551,0,0,1,.439,1.709c-.129.491-.65.532-.524,1.285a1.323,1.323,0,0,0,.755,1.09,1.723,1.723,0,0,1,.635.694,1.891,1.891,0,0,1,.087,1.061c-.146.608-1.035.125-1.629-.147a11.153,11.153,0,0,1-1.951-1.579A3.365,3.365,0,0,1,22.046,45.327Z" transform="translate(0.44 0.063)" fill="#bc9f82"/>
    <path id="Tracé_1352" data-name="Tracé 1352" d="M43.893,18.735c18.882,0,18.99,15.752,18.15,26.059,1.3-2.444,5.131-1.687,4.815,2.16-.3,3.71-5.716,5.627-5.645,5.2-1.545,8.481-10.431,13.383-17.32,13.383-.047,0-.1-.008-.143-.008V18.736Z" transform="translate(0.44 0.063)" fill="#d9bf9f"/>
    <path id="Tracé_1353" data-name="Tracé 1353" d="M65.65,45.327a1.792,1.792,0,0,0-2.729-.518,1.556,1.556,0,0,0-.439,1.709c.135.491.655.532.527,1.285a1.326,1.326,0,0,1-.758,1.09,1.744,1.744,0,0,0-.635.694,1.827,1.827,0,0,0-.081,1.061c.14.608,1.029.125,1.626-.147a11.283,11.283,0,0,0,1.954-1.579A3.372,3.372,0,0,0,65.65,45.327Z" transform="translate(0.44 0.063)" fill="#bc9f82"/>
    <path id="Tracé_1354" data-name="Tracé 1354" d="M43.639,23.174c-6.216,0-10.762,1.8-13.517,5.349-3.841,4.953-3.694,12.526-2.279,17.96.433,1.662.656,6.14.957,7.786,1.336,7.348,9.477,11.265,14.839,11.265.044,0,.1-.008.143-.008V23.178C43.732,23.178,43.686,23.174,43.639,23.174Z" transform="translate(0.44 0.063)" fill="#dcc5a1"/>
    <path id="Tracé_1355" data-name="Tracé 1355" d="M57.12,28.529C54.391,25,49.9,23.206,43.782,23.178V65.526c6.116-.064,13.435-4.353,14.69-11.257.3-1.646.52-6.124.956-7.786C60.841,41.065,60.979,33.5,57.12,28.529Z" transform="translate(0.44 0.063)" fill="#edd9b4"/>
    <path id="Tracé_1356" data-name="Tracé 1356" d="M28.142,63.7l.017.052h0c0,.005.006.006.006.011a11.782,11.782,0,0,0,2.521,4.017,14.7,14.7,0,0,0,3.791,2.879,19.207,19.207,0,0,1-1.755-1.551,17.331,17.331,0,0,1-1.5-1.747,12.742,12.742,0,0,1-1.428-2.288c.313.146.626.281.942.4.872.325,1.793.582,2.589.858l1.076.381-.237-1.076a22.13,22.13,0,0,0-1.006-3.085c-.052-.136-.114-.273-.169-.408.3.221.608.437.924.65a20.241,20.241,0,0,0,3.5,1.89,15.6,15.6,0,0,0,3.844,1.11,11.913,11.913,0,0,0,2.524.057,11.952,11.952,0,0,0,2.528-.057,15.639,15.639,0,0,0,3.843-1.11,20.241,20.241,0,0,0,3.5-1.89q.469-.319.922-.65c-.053.135-.114.272-.167.408a22.256,22.256,0,0,0-1,3.085l-.24,1.076,1.076-.381c.8-.276,1.714-.533,2.592-.858.31-.116.626-.251.942-.4a12.873,12.873,0,0,1-1.431,2.288,16.954,16.954,0,0,1-1.5,1.747,19.576,19.576,0,0,1-1.752,1.551,14.857,14.857,0,0,0,3.791-2.879A11.805,11.805,0,0,0,59.4,63.761c0-.005,0-.006.006-.011h0c.006-.017.015-.034.021-.052l.921-2.689-1.948,2.364a1.244,1.244,0,0,1-.281.263,4.2,4.2,0,0,1-.5.288,11.535,11.535,0,0,1-1.193.475c-.477.165-.957.3-1.451.444.529-1.575,1.234-3.156,1.916-4.705l1.392-3.162L55.8,59.438c-.415.418-.9.842-1.38,1.241s-.972.8-1.481,1.166a27.422,27.422,0,0,1-3.2,2.014,17.019,17.019,0,0,1-3.549,1.371,11.748,11.748,0,0,1-2.407.378,11.72,11.72,0,0,1-2.4-.378,16.926,16.926,0,0,1-3.548-1.371,27.067,27.067,0,0,1-3.2-2.014c-.509-.368-1-.763-1.483-1.166s-.963-.823-1.384-1.241l-2.469-2.462,1.393,3.162c.681,1.549,1.386,3.13,1.915,4.705-.494-.141-.974-.279-1.453-.444a11.409,11.409,0,0,1-1.191-.475,3.973,3.973,0,0,1-.5-.288,1.091,1.091,0,0,1-.278-.263L27.22,61.009Z" transform="translate(0.44 0.063)" fill="#422e14"/>
    <path id="Tracé_1357" data-name="Tracé 1357" d="M29.288,56.976s12.5,15.328,28.985,0L53.59,62.494s-11.908,8.976-22.8-2.637Z" transform="translate(0.44 0.063)" fill="#422e14"/>
    <path id="Tracé_1358" data-name="Tracé 1358" d="M26.819,45.485c-.374,0,.03-2.005-1.234-3.386s-3.176-6.037-3.176-10.683,1.643-8.782,5.926-13.174a30.491,30.491,0,0,1,10.583-6.53l-2.9,2.635s1.559-2.141,7.172-3.851a10.191,10.191,0,0,1,7.289.153s-2.916-.1-3.8,1.167a4.763,4.763,0,0,1-1.042.808S47,9.594,53.3,12.106,59.481,19.12,63.866,20.5c4.484,1.418,5.785-.4,5.785-.4s-1.945,3.185-5.4,3.192a3.285,3.285,0,0,1-.62-.013,28.77,28.77,0,0,1,1.544,5.956c.258,2.6-.538,4.379-.781,9.24-.21,4.155-1.348,2.024-2.7,5.085a6.4,6.4,0,0,0-.476,2.183c-.5.123-1.82-2.495-.872-7.037.614-2.948-2.431-14.125-9.776-11.948-4.492,1.334-5.628,4.049-8.985,1.638-2.9-2.08-6.945-3.274-9.969-1.629s-4.727,5.342-4.2,11.241C28.083,45.542,26.819,45.485,26.819,45.485Z" transform="translate(0.44 0.063)" fill="#422e14"/>
  </g>
</svg>
