<svg xmlns="http://www.w3.org/2000/svg" viewBox="0 0 88.888 89.35">
  <g id="Groupe_101" data-name="Groupe 101" transform="translate(0)">
    <rect id="Rectangle_18" data-name="Rectangle 18" width="88.888" height="88.849" rx="44.425" transform="translate(0)" fill="#7a94a4"/>
    <path id="Intersection_34" data-name="Intersection 34" d="M16.807,33.283A44.288,44.288,0,0,1,0,29.994c.714-8.585,4.3-12.569,7.174-14.4a9.956,9.956,0,0,1,3.761-1.516h.088a1.332,1.332,0,0,0,.239-.05c.912-.252,1.534-1.591,1.951-3.5a10.256,10.256,0,0,0,.19-1.048c.1-.6.193-1.251.254-1.918.04-.4.077-.809.115-1.228C13.936,4.3,13.989,2.1,13.989,0c0,0,2.435.239,4.394.239V33.257c-.511.017-1.022.026-1.537.026Z" transform="translate(27.618 55.567)" fill="#dcc5a1" stroke="rgba(0,0,0,0)" stroke-miterlimit="10" stroke-width="1"/>
    <path id="Intersection_33" data-name="Intersection 33" d="M0,.239H.041C2,.239,4.45,0,4.45,0c0,2.087.049,4.268.216,6.287.038.406.073.81.113,1.2.076.695.152,1.352.252,1.969v.014c.039.277.088.527.14.782.38,1.856.936,3.22,1.749,3.674.065.024.126.077.187.077a1.113,1.113,0,0,0,.41.074,9.133,9.133,0,0,1,2.685.91c2.821,1.415,7.005,4.947,8.1,13.629A44.2,44.2,0,0,1,0,33.257Z" transform="translate(46.001 55.567)" fill="#edd9b4" stroke="rgba(0,0,0,0)" stroke-miterlimit="10" stroke-width="1"/>
    <path id="Tracé_341" data-name="Tracé 341" d="M761.666,153.71v.011a5.836,5.836,0,0,1-5.005,2.714h-.026a6.306,6.306,0,0,1-4.979-2.7c.106-.606.19-1.249.252-1.919.041-.4.079-.808.117-1.225a19.809,19.809,0,0,0,4.56.6h.05a18.668,18.668,0,0,0,4.662-.646c.041.406.079.812.114,1.2C761.49,152.434,761.563,153.089,761.666,153.71Z" transform="translate(-710.64 -88.675)" fill="#bc9f82" opacity="0.7"/>
    <path id="Intersection_32" data-name="Intersection 32" d="M16.882,18.3A44.294,44.294,0,0,1,0,14.975C.785,6.236,4.743,1.516,8.256,0,11.2,2.967,14.673,7.6,15.61,8.469c1.585,1.485,2.553,4.014,3.553,3.379C20.183,11.2,25.745,3.383,28.637,0c2.826,1.415,7.024,4.948,8.124,13.63A44.248,44.248,0,0,1,16.921,18.3Z" transform="translate(27.542 70.555)" fill="#895a59" stroke="rgba(0,0,0,0)" stroke-miterlimit="10" stroke-width="1"/>
    <path id="Tracé_343" data-name="Tracé 343" d="M748.6,159.114c.36.742,4.344,5.122,5.432,6.415s1.638,1.1,2.358,3.585.234,8.458.234,8.458-.348-5.076-1.8-6.369-9.366-5.245-9.366-5.245l2.969-.984-8.038-3.2a31.832,31.832,0,0,1,4.829-2.76c2.317-.995,4.247-1.6,4.247-1.6Z" transform="translate(-710.64 -88.675)" fill="#4b3118"/>
    <path id="Tracé_344" data-name="Tracé 344" d="M764.761,159.277c-.363.747-4.347,5.125-5.432,6.419s-1.636,1.1-2.361,3.587-.234,8.453-.234,8.453.348-5.076,1.8-6.369,9.366-5.244,9.366-5.244l-2.966-.984,8.038-3.2a32.414,32.414,0,0,0-4.829-2.762c-2.32-.994-4.25-1.6-4.25-1.6Z" transform="translate(-710.64 -88.675)" fill="#4b3118"/>
    <path id="Tracé_345" data-name="Tracé 345" d="M756.623,108.9c-18.858-.036-18.966,15.064-18.13,24.91-1.293-2.311-5.113-1.451-4.8,2.247.3,3.546,5.707,5.152,5.634,4.761,1.539,8.02,10.428,12.477,17.3,13.112.047,0,.1,0,.146,0V108.9Z" transform="translate(-710.64 -88.675)" fill="#ccad8b"/>
    <path id="Tracé_346" data-name="Tracé 346" d="M734.638,134.5a1.867,1.867,0,0,1,2.764-.5,1.444,1.444,0,0,1,.448,1.642c-.135.474-.661.51-.533,1.235a1.3,1.3,0,0,0,.767,1.051,1.455,1.455,0,0,1,.728,1.686c-.143.59-1.047.122-1.65-.135a11.639,11.639,0,0,1-1.98-1.526A3.11,3.11,0,0,1,734.638,134.5Z" transform="translate(-710.64 -88.675)" fill="#bc9f82"/>
    <path id="Tracé_347" data-name="Tracé 347" d="M756.717,108.9c18.855-.036,18.966,15.064,18.126,24.91,1.293-2.311,5.116-1.451,4.806,2.247-.3,3.546-5.707,5.152-5.631,4.761-1.544,8.02-10.43,12.477-17.3,13.112-.047,0-.1,0-.147,0V108.9Z" transform="translate(-710.64 -88.675)" fill="#d9bf9f"/>
    <path id="Tracé_348" data-name="Tracé 348" d="M778.836,134.5a1.87,1.87,0,0,0-2.767-.5,1.45,1.45,0,0,0-.448,1.642c.135.474.665.51.536,1.235a1.292,1.292,0,0,1-.767,1.051,1.452,1.452,0,0,0-.731,1.686c.146.59,1.047.122,1.65-.135a11.662,11.662,0,0,0,1.983-1.526A3.119,3.119,0,0,0,778.836,134.5Z" transform="translate(-710.64 -88.675)" fill="#bc9f82"/>
    <path id="Tracé_349" data-name="Tracé 349" d="M756.524,113.175c-6.3,0-10.9,1.734-13.7,5.148-3.9,4.768-3.75,12.056-2.31,17.287.438,1.6.663,5.9.968,7.49,1.36,7.074,9.606,10.842,15.038,10.842.046,0,.1-.006.146-.006V113.179C756.62,113.179,756.57,113.175,756.524,113.175Z" transform="translate(-710.64 -88.675)" fill="#dcc5a1"/>
    <path id="Tracé_350" data-name="Tracé 350" d="M770.19,118.329c-2.771-3.392-7.325-5.121-13.52-5.15v40.757c6.2-.065,13.613-4.191,14.888-10.836.3-1.585.527-5.89.969-7.49C773.957,130.393,774.1,123.117,770.19,118.329Z" transform="translate(-710.64 -88.675)" fill="#edd9b4"/>
    <path id="Tracé_351" data-name="Tracé 351" d="M759.841,147.548a5.033,5.033,0,0,1-3.18,1.514,4.746,4.746,0,0,1-3.1-1.484,20.529,20.529,0,0,1,3.1-.228A25.781,25.781,0,0,1,759.841,147.548Z" transform="translate(-710.64 -88.675)" fill="#b47070"/>
    <path id="Tracé_352" data-name="Tracé 352" d="M757.565,146.845a.934.934,0,0,1-1.8,0,12.667,12.667,0,0,0-2.278.7s1.737.181,2.234.181.933.195.942-.173c.009.371.366.23.86.23s2.32-.238,2.32-.238A12.716,12.716,0,0,0,757.565,146.845Z" transform="translate(-710.64 -88.675)" fill="#c17874"/>
    <path id="Tracé_353" data-name="Tracé 353" d="M771.412,103.78a.955.955,0,0,0-.942.808H737.73a.953.953,0,1,0,0,.29h32.74a.955.955,0,1,0,.942-1.1Z" transform="translate(-710.64 -88.675)" fill="#fdfdfd"/>
    <path id="Tracé_354" data-name="Tracé 354" d="M776.475,120.713a26.554,26.554,0,0,0-1.746-6.856c-1.4-3.047-3.878-4.818-7.532-6.536,0-.068.012-.134.012-.2,0-5.265-4.7-9.532-10.484-9.532-5.481,0-9.977,3.829-10.433,8.709-7.1,1.888-9.823,9.978-10.384,13.645-.038.264-.077.515-.115.772-.76,5.54-.038,7.825.594,9.064a8.517,8.517,0,0,1,.661,1.313,14.3,14.3,0,0,0,1.355,3.132,4.36,4.36,0,0,1,1.319,1.8c.608,1.564.836,1.3.836,1.3s-.848-5.52-.938-7.553a2.223,2.223,0,0,1-.015-.3c0-.987.456-5.922,3.75-8.761a4.632,4.632,0,0,1,.5-.4c2.773-2.063,7.5-1.187,8.021-1.187.1,0,1.175.819,2.72,1.591a11.141,11.141,0,0,0,5.324,1.374c11.8-.593,14.292,5.707,14.558,7.022-.015.215-.038.441-.05.668-.143,1.631-.319,3.525-.445,4.8-.216,1.513-.406,2.753-.406,2.753s.243.261.836-1.3a4.228,4.228,0,0,1,1.1-1.615,17.234,17.234,0,0,1,.989-3.322,5.352,5.352,0,0,0,.281-1.313,25.251,25.251,0,0,0,.222-2.989A49.819,49.819,0,0,0,776.475,120.713Z" transform="translate(-710.64 -88.675)" fill="#fdfdfd"/>
  </g>
</svg>
