<svg xmlns="http://www.w3.org/2000/svg" viewBox="0 0 88.888 89.351">
  <g id="Groupe_104" data-name="Groupe 104" transform="translate(0)">
    <rect id="Rectangle_12" data-name="Rectangle 12" width="88.888" height="88.849" rx="44.425" transform="translate(0)" fill="#e3b142"/>
    <path id="Intersection_46" data-name="Intersection 46" d="M16.861,31.828A44.291,44.291,0,0,1,0,28.516C1.235,14.571,10.446,13.467,10.446,13.467c1.053,0,1.732-1.354,2.182-3.41.074-.311.132-.636.182-.989.1-.579.181-1.193.239-1.833.038-.387.076-.771.112-1.168.157-1.949.2-4.06.2-6.066,0,0,2.328.231,4.207.231V31.823c-.224,0-.446.005-.67.005Z" transform="translate(27.563 57.021)" fill="#dcc5a1" stroke="rgba(0,0,0,0)" stroke-miterlimit="10" stroke-width="1"/>
    <path id="Intersection_45" data-name="Intersection 45" d="M0,.231H.036C1.916.231,4.253,0,4.253,0c0,1.993.047,4.083.2,6.014.039.388.076.775.112,1.148.071.663.144,1.289.239,1.882v.014c.041.267.088.5.136.75.449,2.183,1.151,3.659,2.239,3.659,0,0,8.948,1.072,10.388,14.455A44.245,44.245,0,0,1,0,31.823Z" transform="translate(45.134 57.021)" fill="#edd9b4" stroke="rgba(0,0,0,0)" stroke-miterlimit="10" stroke-width="1"/>
    <path id="Tracé_276" data-name="Tracé 276" d="M405.039,154.849v.015a5.578,5.578,0,0,1-4.785,2.6h-.024a6.03,6.03,0,0,1-4.762-2.586c.1-.579.181-1.194.24-1.834.038-.387.076-.771.111-1.168a19.11,19.11,0,0,0,4.361.564h.05a17.879,17.879,0,0,0,4.458-.616c.038.388.076.775.111,1.147C404.87,153.631,404.943,154.256,405.039,154.849Z" transform="translate(-355.096 -88.785)" fill="#bc9f82" opacity="0.7"/>
    <path id="Intersection_47" data-name="Intersection 47" d="M13.8,18.069A44.465,44.465,0,0,1,1.9,16.457a25.185,25.185,0,0,0-.472-8.8A7.33,7.33,0,0,0,0,4.745,12.223,12.223,0,0,1,5.5,0l8.979,15.193.1.165.1-.165L23.657,0a12.209,12.209,0,0,1,5.5,4.745,7.273,7.273,0,0,0-1.427,2.91,24.507,24.507,0,0,0-.517,8.368,44.411,44.411,0,0,1-13.37,2.047Z" transform="translate(30.62 70.78)" fill="#841720" stroke="rgba(0,0,0,0)" stroke-miterlimit="10" stroke-width="1"/>
    <path id="Tracé_278" data-name="Tracé 278" d="M427.024,128.451c0,4.225-12.981,14.142-26.914,14.142S373.2,134.045,373.2,129.817s12.508-5.9,26.438-5.9S427.024,124.223,427.024,128.451Z" transform="translate(-355.096 -88.785)" fill="#511e1e"/>
    <path id="Tracé_279" data-name="Tracé 279" d="M400.28,109.706c-18.3,0-18.408,15.272-17.594,25.265-1.255-2.368-4.97-1.637-4.666,2.09.293,3.6,5.54,5.458,5.467,5.038,1.5,8.225,10.112,12.974,16.793,12.974.044,0,.1-.007.137-.007V109.71C400.371,109.71,400.324,109.706,400.28,109.706Z" transform="translate(-355.096 -88.785)" fill="#ccad8b"/>
    <path id="Tracé_280" data-name="Tracé 280" d="M379.187,135.487a1.737,1.737,0,0,1,2.645-.5,1.494,1.494,0,0,1,.426,1.655c-.125.478-.631.516-.508,1.242a1.3,1.3,0,0,0,.734,1.06,1.69,1.69,0,0,1,.617.673,1.84,1.84,0,0,1,.082,1.026c-.14.594-1,.123-1.58-.136a11.207,11.207,0,0,1-1.895-1.534A3.279,3.279,0,0,1,379.187,135.487Z" transform="translate(-355.096 -88.785)" fill="#bc9f82"/>
    <path id="Tracé_281" data-name="Tracé 281" d="M400.371,109.706c18.3,0,18.41,15.272,17.6,25.265,1.252-2.368,4.967-1.637,4.662,2.09-.292,3.6-5.54,5.458-5.469,5.038-1.5,8.225-10.109,12.974-16.79,12.974-.047,0-.094-.007-.141-.007V109.71C400.277,109.71,400.324,109.706,400.371,109.706Z" transform="translate(-355.096 -88.785)" fill="#d9bf9f"/>
    <path id="Tracé_282" data-name="Tracé 282" d="M421.461,135.484a1.738,1.738,0,0,0-2.645-.5,1.512,1.512,0,0,0-.427,1.657c.129.478.635.516.512,1.243a1.293,1.293,0,0,1-.734,1.059,1.67,1.67,0,0,0-.62.673,1.839,1.839,0,0,0-.079,1.027c.14.592,1,.122,1.576-.138a10.813,10.813,0,0,0,1.9-1.535A3.277,3.277,0,0,0,421.461,135.484Z" transform="translate(-355.096 -88.785)" fill="#bc9f82"/>
    <path id="Tracé_283" data-name="Tracé 283" d="M400.122,114.011c-6.023,0-10.431,1.743-13.1,5.186-3.727,4.8-3.584,12.142-2.209,17.412.418,1.61.635,5.949.925,7.542,1.3,7.128,9.187,10.922,14.385,10.922.044,0,.094-.007.141-.007V114.015C400.213,114.015,400.166,114.011,400.122,114.011Z" transform="translate(-355.096 -88.785)" fill="#dcc5a1"/>
    <path id="Tracé_284" data-name="Tracé 284" d="M413.194,119.2c-2.65-3.418-7.005-5.16-12.931-5.188v41.051c5.929-.064,13.019-4.221,14.239-10.915.289-1.591.506-5.932.927-7.542C416.8,131.351,416.933,124.021,413.194,119.2Z" transform="translate(-355.096 -88.785)" fill="#edd9b4"/>
    <path id="Tracé_285" data-name="Tracé 285" d="M418.383,116.019H383.212a5.412,5.412,0,0,1,0-1.035c1.264-4.877,5.956-10.729,17.1-10.729,10.8,0,16.53,5.718,18.068,10.729A4.684,4.684,0,0,1,418.383,116.019Z" transform="translate(-355.096 -88.785)" fill="#841720"/>
    <path id="Tracé_286" data-name="Tracé 286" d="M418.185,121.815H383.013v-6.286s5.961-4.359,17.106-4.359a37.955,37.955,0,0,1,18.066,4.359Z" transform="translate(-355.096 -88.785)" fill="#aa6568"/>
    <path id="Tracé_287" data-name="Tracé 287" d="M399.64,123.915c-9.788.313-26.2,4.94-26.2,4.94s10.148-12.549,25.89-12.568c13.968-.019,27.692,11.309,27.692,11.309S406.075,123.71,399.64,123.915Z" transform="translate(-355.096 -88.785)" fill="#841720"/>
  </g>
</svg>
