<svg xmlns="http://www.w3.org/2000/svg" viewBox="0 0 88.885 88.943">
  <g id="Groupe_105" data-name="Groupe 105" transform="translate(0)">
    <rect id="Rectangle_34" data-name="Rectangle 34" width="88.885" height="88.443" rx="44.222" transform="translate(0)" fill="#658f83"/>
    <path id="Tracé_288" data-name="Tracé 288" d="M479.424,142.205c-.336-.252-6.494-4.036-6.494-4.036.421,2.358.737,3.32.123,4.919a5.766,5.766,0,0,1-2.214,2.5,4.693,4.693,0,0,1-2.208.884,6.722,6.722,0,0,1-.9-.075,7.168,7.168,0,0,0,3.428.43,3.9,3.9,0,0,0,2.112-.6,3.053,3.053,0,0,0-.43,2.935c1.851,3.77-.617,5-.617,5a7.141,7.141,0,0,0,3.442-1.322c.006.029,0,.065.009.09a2.739,2.739,0,0,0,2.027,2.1s-.924-.153-.752-1.9c.053-.466.536-.652,1.141-.966.234,1.691,1,3.416-.582,4.122,0,0,2.677-.533,3.168-2.115a6.112,6.112,0,0,0,.178-.831,3.64,3.64,0,0,1,.126.447,5.684,5.684,0,0,1-1.155,3.977s5.555-.587,5.6-2.786a11.161,11.161,0,0,1,.246-2.179c.17-.506.5-3.025.5-3.025S479.763,142.457,479.424,142.205Z" transform="translate(-443.984 -89.191)" fill="#0c0e03"/>
    <path id="Tracé_289" data-name="Tracé 289" d="M502.43,142.205c.336-.252,6.494-4.036,6.494-4.036-.422,2.358-.738,3.32-.12,4.919a5.726,5.726,0,0,0,2.211,2.5,4.691,4.691,0,0,0,2.211.884,6.771,6.771,0,0,0,.9-.075,7.18,7.18,0,0,1-3.431.43,3.879,3.879,0,0,1-2.106-.6,3.045,3.045,0,0,1,.427,2.935c-1.851,3.77.62,5,.62,5a7.161,7.161,0,0,1-3.445-1.322.78.78,0,0,1-.012.09,2.733,2.733,0,0,1-2.024,2.1s.927-.153.748-1.9c-.046-.466-.532-.652-1.137-.966-.237,1.691-1,3.416.582,4.122,0,0-2.677-.533-3.165-2.115a6.3,6.3,0,0,1-.182-.831,4.522,4.522,0,0,0-.128.447,5.7,5.7,0,0,0,1.158,3.977s-5.554-.587-5.6-2.786a11.184,11.184,0,0,0-.239-2.179c-.17-.506-.509-3.025-.509-3.025S502.093,142.457,502.43,142.205Z" transform="translate(-443.984 -89.191)" fill="#0c0e03"/>
    <path id="Intersection_44" data-name="Intersection 44" d="M15.248,32.513A44.126,44.126,0,0,1,0,29.814c.988-14.926,10.7-16.09,10.7-16.09,1.076,0,1.767-1.38,2.224-3.472.076-.319.134-.653.186-1.009.1-.592.182-1.221.247-1.869.035-.394.073-.79.111-1.2.161-1.979.21-4.135.21-6.178,0,0,2.371.232,4.287.232V32.455q-1.131.057-2.275.058Z" transform="translate(28.974 55.931)" fill="#dcc5a1" stroke="rgba(0,0,0,0)" stroke-miterlimit="10" stroke-width="1"/>
    <path id="Intersection_43" data-name="Intersection 43" d="M0,.232H.035C1.951.232,4.335,0,4.335,0c0,2.031.049,4.16.207,6.13.041.4.076.787.114,1.167.074.681.147,1.318.246,1.922V9.23c.038.269.085.518.138.763.456,2.229,1.174,3.731,2.282,3.731,0,0,8.777,1.053,10.495,13.972A43.979,43.979,0,0,1,0,32.455Z" transform="translate(46.938 55.931)" fill="#edd9b4" stroke="rgba(0,0,0,0)" stroke-miterlimit="10" stroke-width="1"/>
    <path id="Tracé_292" data-name="Tracé 292" d="M495.825,154.34v.012A5.693,5.693,0,0,1,490.949,157h-.026a6.142,6.142,0,0,1-4.853-2.635c.1-.592.181-1.221.246-1.869.035-.394.073-.79.111-1.2a19.175,19.175,0,0,0,4.446.578h.05a18.288,18.288,0,0,0,4.542-.626c.041.4.076.787.114,1.168C495.653,153.1,495.726,153.737,495.825,154.34Z" transform="translate(-443.984 -89.191)" fill="#bc9f82" opacity="0.7"/>
    <path id="Tracé_293" data-name="Tracé 293" d="M490.972,108.326c-18.656,0-18.761,15.564-17.933,25.749-1.279-2.414-5.064-1.668-4.754,2.135.3,3.667,5.646,5.559,5.57,5.131,1.532,8.383,10.308,13.225,17.117,13.225.047,0,.1-.006.144-.006V108.33C491.066,108.33,491.019,108.326,490.972,108.326Z" transform="translate(-443.984 -89.191)" fill="#ccad8b"/>
    <path id="Tracé_294" data-name="Tracé 294" d="M469.479,134.6a1.763,1.763,0,0,1,2.691-.511,1.524,1.524,0,0,1,.436,1.689c-.129.484-.647.523-.518,1.266a1.308,1.308,0,0,0,.746,1.078,1.751,1.751,0,0,1,.629.685,1.826,1.826,0,0,1,.082,1.05c-.141.6-1.018.124-1.609-.142a11.3,11.3,0,0,1-1.928-1.564A3.318,3.318,0,0,1,469.479,134.6Z" transform="translate(-443.984 -89.191)" fill="#bc9f82"/>
    <path id="Tracé_295" data-name="Tracé 295" d="M491.066,108.326c18.656,0,18.762,15.564,17.934,25.749,1.278-2.414,5.063-1.668,4.753,2.135-.3,3.667-5.645,5.559-5.572,5.131-1.53,8.383-10.311,13.225-17.115,13.225-.047,0-.1-.006-.143-.006V108.33C490.972,108.33,491.019,108.326,491.066,108.326Z" transform="translate(-443.984 -89.191)" fill="#d9bf9f"/>
    <path id="Tracé_296" data-name="Tracé 296" d="M512.56,134.6a1.764,1.764,0,0,0-2.692-.511,1.529,1.529,0,0,0-.438,1.689c.131.484.649.523.52,1.266a1.3,1.3,0,0,1-.748,1.078,1.753,1.753,0,0,0-.626.685,1.842,1.842,0,0,0-.082,1.05c.14.6,1.021.124,1.608-.142a11.267,11.267,0,0,0,1.928-1.564A3.318,3.318,0,0,0,512.56,134.6Z" transform="translate(-443.984 -89.191)" fill="#bc9f82"/>
    <path id="Tracé_297" data-name="Tracé 297" d="M490.811,112.713c-6.139,0-10.632,1.776-13.353,5.284-3.8,4.9-3.653,12.378-2.252,17.748.427,1.642.65,6.065.942,7.692,1.328,7.26,9.366,11.129,14.663,11.129.044,0,.1-.006.144-.006V112.718C490.908,112.718,490.861,112.713,490.811,112.713Z" transform="translate(-443.984 -89.191)" fill="#dcc5a1"/>
    <path id="Tracé_298" data-name="Tracé 298" d="M504.135,118.006c-2.7-3.485-7.14-5.261-13.18-5.288V154.56c6.043-.067,13.274-4.3,14.514-11.123.3-1.626.515-6.05.942-7.692C507.809,130.39,507.947,122.919,504.135,118.006Z" transform="translate(-443.984 -89.191)" fill="#edd9b4"/>
    <path id="Tracé_299" data-name="Tracé 299" d="M511.357,123.463a4.557,4.557,0,0,0-.395-.757,31.455,31.455,0,0,0-4.086-10.637c-1.922-2.774-6.631-5.228-12.68-5.96s-11.326,3.531-11.326,3.531a6.758,6.758,0,0,0-1.738-1.8c-.8-.4-3.1.081-3.1.081a5.576,5.576,0,0,1,1.866.844,1.663,1.663,0,0,1,.31,1.5,11.309,11.309,0,0,0-2.627-.807c-1.462-.041-3.109,1.812-3.109,1.812a5.287,5.287,0,0,1,2.688-.925,7.188,7.188,0,0,1,1.62.574s-2.17.227-6.23,4.662a12.634,12.634,0,0,0-3.068,7.765l2.568-1.469a6.7,6.7,0,0,0-.992,1.584c-1.9,4.694.7,9.4.7,9.4s.846.084,1.618,1.894a35.361,35.361,0,0,1,1.7,5.477h.906s-1.948-7.557-.634-11.671c.362-1.132,1.339-3.456,2.7-3.536a4.87,4.87,0,0,0,1.3-2.339,9.636,9.636,0,0,1,3.61-4.646,1.5,1.5,0,0,1,1.761.246,12,12,0,0,1,4.969-1.959c3.206-.569,4.967,2.856,5.669,4.652a3.991,3.991,0,0,1,.34,2.692,8.523,8.523,0,0,0,1.2-4.408,5.442,5.442,0,0,0-.372-1.679c.421.213,2.244.717,2.618,5.434a4.753,4.753,0,0,1-1.846,3.751s4.5-1.856,3.569-7.589a9.771,9.771,0,0,1,2.211,3.506c.4,1.554,3.771,5.166,4,5.875,1.311,4.114-.632,11.671-.632,11.671h.9a35.051,35.051,0,0,1,1.7-5.477c.772-1.81,1.617-1.894,1.617-1.894S513.253,128.157,511.357,123.463Zm-15.283-6.721c-.024-.028-.047-.063-.071-.09l.076.076Z" transform="translate(-443.984 -89.191)" fill="#0c0e03"/>
    <path id="Tracé_300" data-name="Tracé 300" d="M513.847,127.3a57.233,57.233,0,0,0-6.971-15.232,9.788,9.788,0,0,0-1.562-1.693,1.644,1.644,0,0,0,.512-.916c.105-.97.582-2.963-.813-2.26-1.314.659.292,1.024-.477,2.1-.8-1.1-3.355-3.361-11.516-6.385-11.759-4.359-14.8-.646-18.691,1.292s-4.049,3.871-3.563,5.128.974,5.2,1.784,6.245,4.37-.4,11.338,5.714,21.215,9.057,25.425,14.76,6.154,3.82,6.154,3.82.486-1.128.971-2.421S515.631,134.066,513.847,127.3Z" transform="translate(-443.984 -89.191)" fill="#cd6c13"/>
    <path id="Intersection_42" data-name="Intersection 42" d="M15.253,17.668A44.139,44.139,0,0,1,0,14.967c.054-.766.131-1.5.229-2.188a20.917,20.917,0,0,1,.433-2.351c.061-.332.147-.652.231-.973.126-.433.249-.849.386-1.255.108-.333.231-.65.357-.961a17,17,0,0,1,1.2-2.425,13.258,13.258,0,0,1,2.6-3.186A11.782,11.782,0,0,1,7.613.039.089.089,0,0,0,7.665.014.034.034,0,0,1,7.689,0,8.986,8.986,0,0,0,9.134,1.629c.842.821,2.049,1.905,3.592,3.186.1.073.211.173.325.261a7.471,7.471,0,0,0,10.04,0c.112-.088.223-.188.322-.261,1.556-1.281,2.767-2.365,3.6-3.186A9.422,9.422,0,0,0,28.463,0a.013.013,0,0,1,.013.014.13.13,0,0,0,.064.025,11.956,11.956,0,0,1,2.188,1.59,13.506,13.506,0,0,1,2.592,3.186A15.511,15.511,0,0,1,34.506,7.24c.122.311.246.628.356.961.147.406.269.822.4,1.255.088.32.161.641.238.973.169.74.307,1.514.418,2.351v.007A44.034,44.034,0,0,1,15.7,17.668Z" transform="translate(28.968 70.775)" fill="#fdfbf8" stroke="rgba(0,0,0,0)" stroke-miterlimit="10" stroke-width="1"/>
    <path id="Tracé_302" data-name="Tracé 302" d="M485.555,171.367a1.831,1.831,0,1,1-1.831-1.827A1.826,1.826,0,0,1,485.555,171.367Z" transform="translate(-443.984 -89.191)" fill="#cd6c13"/>
    <path id="Tracé_303" data-name="Tracé 303" d="M490.766,174.153a.966.966,0,1,1-.965-.963A.965.965,0,0,1,490.766,174.153Z" transform="translate(-443.984 -89.191)" fill="#b3b628"/>
    <path id="Tracé_304" data-name="Tracé 304" d="M499.133,171.974a2.289,2.289,0,1,1-2.29-2.283A2.284,2.284,0,0,1,499.133,171.974Z" transform="translate(-443.984 -89.191)" fill="#425f6a"/>
    <path id="Tracé_305" data-name="Tracé 305" d="M504.893,174.155a.661.661,0,1,1-.661-.661A.66.66,0,0,1,504.893,174.155Z" transform="translate(-443.984 -89.191)" fill="#b3b628"/>
    <path id="Tracé_306" data-name="Tracé 306" d="M502.246,166.7a.711.711,0,1,1-.711-.713A.708.708,0,0,1,502.246,166.7Z" transform="translate(-443.984 -89.191)" fill="#856da5"/>
    <path id="Tracé_307" data-name="Tracé 307" d="M481.282,165.586a.916.916,0,1,1-.916-.912A.914.914,0,0,1,481.282,165.586Z" transform="translate(-443.984 -89.191)" fill="#b3b628"/>
    <path id="Tracé_308" data-name="Tracé 308" d="M478.432,173.19a1.221,1.221,0,1,1-1.219-1.217A1.22,1.22,0,0,1,478.432,173.19Z" transform="translate(-443.984 -89.191)" fill="#b3b628"/>
  </g>
</svg>
