<svg xmlns="http://www.w3.org/2000/svg" viewBox="0 0 88.885 89.249">
  <g id="Groupe_103" data-name="Groupe 103" transform="translate(0)">
    <rect id="Rectangle_22" data-name="Rectangle 22" width="88.885" height="88.849" rx="44.425" transform="translate(0)" fill="#b3b628"/>
    <path id="Tracé_309" data-name="Tracé 309" d="M584.581,115.863c-3.13,0-5.985,1.735-8.19,4.593-2.3-3.675-5.546-5.981-9.156-5.981-6.967,0-12.616,8.554-12.616,19.1s5.649,19.1,12.616,19.1c3.13,0,5.988-1.739,8.2-4.594,2.3,3.676,5.543,5.98,9.15,5.98,6.968,0,12.619-8.55,12.619-19.1S591.549,115.863,584.581,115.863Z" transform="translate(-532.87 -88.675)" fill="#444e53"/>
    <path id="Intersection_41" data-name="Intersection 41" d="M18.332,36.9A44.164,44.164,0,0,1,0,31.327C1.98,16.759,11.89,15.573,11.89,15.573h.1a1.727,1.727,0,0,0,.266-.054c1.009-.282,1.7-1.762,2.156-3.884a4.917,4.917,0,0,0,.1-.5c.041-.208.088-.419.111-.643.117-.669.214-1.382.282-2.121.044-.447.085-.893.126-1.354.184-2.254.237-4.7.237-7.014,0,0,2.694.266,4.867.266V36.9Z" transform="translate(22.628 51.817)" fill="#dcc5a1" stroke="rgba(0,0,0,0)" stroke-miterlimit="10" stroke-width="1"/>
    <path id="Intersection_40" data-name="Intersection 40" d="M0,36.9V.266H.041C2.215.266,4.917,0,4.917,0c0,2.3.057,4.72.238,6.955.043.445.087.9.129,1.326.082.768.17,1.494.281,2.179v.016a3.843,3.843,0,0,0,.067.432c.032.139.058.293.085.433.421,2.052,1.038,3.562,1.936,4.066a1.475,1.475,0,0,0,.212.08,1.136,1.136,0,0,0,.446.085s10.627,1.272,12.074,17.352A44.156,44.156,0,0,1,5.165,36.9Z" transform="translate(42.76 51.817)" fill="#edd9b4" stroke="rgba(0,0,0,0)" stroke-miterlimit="10" stroke-width="1"/>
    <path id="Tracé_312" data-name="Tracé 312" d="M581.185,150.955v.013a6.453,6.453,0,0,1-5.537,3h-.023a6.986,6.986,0,0,1-5.509-2.986c.112-.673.208-1.386.278-2.125.041-.446.085-.893.129-1.354a22.144,22.144,0,0,0,5.043.653h.059a20.886,20.886,0,0,0,5.154-.709c.04.443.087.894.128,1.326C580.992,149.544,581.071,150.268,581.185,150.955Z" transform="translate(-532.87 -88.675)" fill="#bc9f82" opacity="0.7"/>
    <path id="Intersection_39" data-name="Intersection 39" d="M18.744,12.169A44.165,44.165,0,0,1,0,6.584,26.746,26.746,0,0,1,1.353.956c4.5-3.088,11.727,2.263,18.781,2.6a12.523,12.523,0,0,0,4.6-1.108,13.541,13.541,0,0,1,11,.121,2.388,2.388,0,0,0,1.914-.183c.671-.274,1.271-.547,1.812-.009a30.168,30.168,0,0,1,1.057,5.767,44.16,44.16,0,0,1-15.706,4.025Z" transform="translate(22.664 76.58)" fill="#7fa5ad" stroke="rgba(0,0,0,0)" stroke-miterlimit="10" stroke-width="1"/>
    <path id="Intersection_38" data-name="Intersection 38" d="M18.339,21.664A44.164,44.164,0,0,1,0,16.087C1.972,1.269,11.979.059,11.979.059h.1a1.539,1.539,0,0,1,.274.04,2.41,2.41,0,0,0,.268.041C12.16.448,11.35,1.352,11.061,3.6c-.439,3.319,1.877,6.294-.3,7.382.661.767,6.125,5.463,8.012,5.392H21.6c1.9.071,7.547-4.739,8.2-5.59-2.188-1.076.4-4.108-.31-7.385C28.88.6,28.269.176,28.135.117c.139.039.355-.059.506-.059,0,0,10.664,1.288,12.144,17.508a44.162,44.162,0,0,1-15.479,4.1ZM12.622.139c.351-.235.5-.126.059,0a.127.127,0,0,1-.039,0ZM28.113.11c-.011,0,0,0,.022.007Z" transform="translate(22.621 67.053)" fill="#2b2a23" stroke="rgba(0,0,0,0)" stroke-miterlimit="10" stroke-width="1"/>
    <path id="Tracé_315" data-name="Tracé 315" d="M583.622,155.7c-.5.853-1.638,1.716-4.09,1.984a38.1,38.1,0,0,1-3.855.236c-4.891.027-6.953-1.187-7.766-2.265.883-.33,1.5-1.59,1.933-3.38.041-.136.085-.3.115-.461.014-.08.043-.164.055-.251.225.433.883,1.147,2.776,1.413h.026a22.576,22.576,0,0,0,2.861.207,10.815,10.815,0,0,0,3.586-.515c.018-.012.018-.012.03-.012a3.267,3.267,0,0,0,1.962-1.442s.041.027.1.072c.014.086.029.154.044.239.418,2.052,1.038,3.559,1.933,4.063a1.993,1.993,0,0,0,.211.086A.456.456,0,0,1,583.622,155.7Z" transform="translate(-532.87 -88.675)" fill="#fdfbf8"/>
    <path id="Tracé_316" data-name="Tracé 316" d="M575.607,101.39c-20.862-.037-20.979,16.664-20.052,27.559-1.43-2.56-5.66-1.612-5.314,2.482.333,3.918,6.312,5.7,6.23,5.265,1.705,8.874,11.536,13.805,19.136,14.5.053.008.111,0,.161.008V101.391Z" transform="translate(-532.87 -88.675)" fill="#ccad8b"/>
    <path id="Tracé_317" data-name="Tracé 317" d="M551.288,129.7a2.071,2.071,0,0,1,3.059-.549,1.6,1.6,0,0,1,.495,1.818c-.15.522-.735.568-.588,1.365a1.431,1.431,0,0,0,.842,1.162c.249.2.562.358.717.741a1.868,1.868,0,0,1,.09,1.128c-.157.646-1.158.131-1.825-.157a12.523,12.523,0,0,1-2.188-1.681A3.451,3.451,0,0,1,551.288,129.7Z" transform="translate(-532.87 -88.675)" fill="#bc9f82"/>
    <path id="Tracé_318" data-name="Tracé 318" d="M575.712,101.39c20.856-.037,20.979,16.664,20.049,27.559,1.433-2.56,5.663-1.612,5.317,2.482-.333,3.918-6.312,5.7-6.227,5.265-1.708,8.874-11.539,13.805-19.139,14.5-.052.008-.111,0-.158.008V101.391Z" transform="translate(-532.87 -88.675)" fill="#d9bf9f"/>
    <path id="Tracé_319" data-name="Tracé 319" d="M600.177,129.7a2.071,2.071,0,0,0-3.059-.549,1.606,1.606,0,0,0-.494,1.818c.149.522.734.568.594,1.365a1.427,1.427,0,0,1-.852,1.162c-.243.2-.558.358-.713.741a1.885,1.885,0,0,0-.094,1.128c.161.646,1.161.131,1.828-.157a12.412,12.412,0,0,0,2.188-1.681A3.449,3.449,0,0,0,600.177,129.7Z" transform="translate(-532.87 -88.675)" fill="#bc9f82"/>
    <path id="Tracé_320" data-name="Tracé 320" d="M575.5,106.116c-6.965,0-12.063,1.916-15.152,5.694-4.306,5.274-4.142,13.337-2.551,19.124.483,1.768.731,6.534,1.071,8.284,1.5,7.826,10.623,11.993,16.632,11.993.052,0,.111-.006.164-.006V106.119C575.6,106.119,575.554,106.116,575.5,106.116Z" transform="translate(-532.87 -88.675)" fill="#dcc5a1"/>
    <path id="Tracé_321" data-name="Tracé 321" d="M590.616,111.817c-3.063-3.753-8.1-5.666-14.956-5.7v45.086c6.859-.07,15.061-4.637,16.468-11.987.333-1.75.585-6.516,1.07-8.284C594.787,125.158,594.942,117.11,590.616,111.817Z" transform="translate(-532.87 -88.675)" fill="#edd9b4"/>
    <path id="Tracé_322" data-name="Tracé 322" d="M579.164,144.135a5.553,5.553,0,0,1-3.516,1.681,5.25,5.25,0,0,1-3.423-1.642,22.556,22.556,0,0,1,3.423-.254A28.983,28.983,0,0,1,579.164,144.135Z" transform="translate(-532.87 -88.675)" fill="#381c16"/>
    <path id="Tracé_323" data-name="Tracé 323" d="M576.648,143.364a.915.915,0,0,0-1,.761.906.906,0,0,0-.989-.761,14.078,14.078,0,0,0-2.524.771s1.921.205,2.471.205,1.033.215,1.042-.19c.012.407.409.253.953.253s2.563-.268,2.563-.268A14.034,14.034,0,0,0,576.648,143.364Z" transform="translate(-532.87 -88.675)" fill="#611413"/>
    <path id="Tracé_324" data-name="Tracé 324" d="M596.662,115.654c-.252-.727-.515-1.4-.784-2.053v-.281c0-2.746-2.478-6.308-6.418-9.769s-6.418-2.746-9.676-2.648l-.029.056c-1.431-.3-9.135-1.8-13.716-.14-5.064,1.835-9.211,4.979-12.139,13.426s-.524,15.364.044,18.316c1.8,9.346,10.422,15.264,10.422,15.264a20.462,20.462,0,0,1-3.151-4.984,26.781,26.781,0,0,1-1.883-10.131c0-4.887,4.92-10.934,4.92-10.934a22.344,22.344,0,0,0-2.715,7.964,11.516,11.516,0,0,0,1.928,7.4s-3.016-5.421,1.8-9.465a32.17,32.17,0,0,0,3.849-3.856l0,.009c-1.211,3.2,1.217,5.883,1.217,5.883s-.044-4.1,2.469-5.5c6.125-3.393,7.1-4.8,7.962-7.527a6.513,6.513,0,0,0,.228-1.052l5.6,7.9c.263.344.693.928,1.187,1.678,1.454,2.189,3.461,5.778,3.461,8.9a26.757,26.757,0,0,1-1.884,10.131,20.469,20.469,0,0,1-3.153,4.984s8.626-5.916,10.425-15.264C597.185,131.018,599.587,124.1,596.662,115.654Z" transform="translate(-532.87 -88.675)" fill="#444e53"/>
  </g>
</svg>
