<svg xmlns="http://www.w3.org/2000/svg" viewBox="0 0 88.885 89.348">
  <g id="Groupe_93" data-name="Groupe 93" transform="translate(0)">
    <rect id="Rectangle_25" data-name="Rectangle 25" width="88.885" height="88.848" rx="44.424" transform="translate(0)" fill="#895a59"/>
    <path id="Intersection_6" data-name="Intersection 6" d="M15.663,32.812A44.316,44.316,0,0,1,0,29.972C1.074,15.058,10.818,13.89,10.818,13.89c1.088,0,1.787-1.4,2.249-3.513.076-.325.139-.661.19-1.023.1-.6.187-1.236.249-1.893.038-.4.073-.8.111-1.209.163-2,.213-4.184.213-6.252,0,0,2.4.234,4.338.234V32.745q-1.225.067-2.468.067Z" transform="translate(28.761 56.036)" fill="#dcc5a1" stroke="rgba(0,0,0,0)" stroke-miterlimit="10" stroke-width="1"/>
    <path id="Intersection_5" data-name="Intersection 5" d="M0,.234H.038C1.975.234,4.388,0,4.388,0c0,2.056.05,4.21.213,6.2.035.4.076.795.111,1.182.077.685.153,1.332.252,1.943v.013c.035.274.086.525.139.771.462,2.256,1.184,3.776,2.309,3.776,0,0,8.789,1.051,10.593,13.934A44.159,44.159,0,0,1,0,32.745Z" transform="translate(46.929 56.036)" fill="#edd9b4" stroke="rgba(0,0,0,0)" stroke-miterlimit="10" stroke-width="1"/>
    <path id="Tracé_171" data-name="Tracé 171" d="M140.342,65.3v.013a5.762,5.762,0,0,1-4.937,2.678h-.027a6.211,6.211,0,0,1-4.911-2.667c.1-.6.187-1.235.249-1.892.038-.4.073-.8.111-1.209a19.544,19.544,0,0,0,4.5.585h.049a18.475,18.475,0,0,0,4.6-.633c.035.4.076.8.111,1.182C140.167,64.044,140.243,64.691,140.342,65.3Z" transform="translate(-88.449 0.063)" fill="#bc9f82" opacity="0.7"/>
    <path id="Tracé_172" data-name="Tracé 172" d="M123.742,53.022c-.342-.256-6.572-4.087-6.572-4.087.427,2.385.745,3.359.122,4.978a5.8,5.8,0,0,1-2.24,2.529,4.723,4.723,0,0,1-2.235.9,6.551,6.551,0,0,1-.912-.079,7.2,7.2,0,0,0,3.471.438,3.906,3.906,0,0,0,2.133-.606,3.107,3.107,0,0,0-.433,2.971c1.875,3.813-.626,5.061-.626,5.061a7.258,7.258,0,0,0,3.487-1.335c.006.026,0,.064.011.087A2.772,2.772,0,0,0,122,66s-.936-.158-.758-1.931c.05-.473.541-.659,1.153-.977.24,1.71,1.015,3.458-.588,4.171,0,0,2.709-.535,3.2-2.141a6.346,6.346,0,0,0,.184-.838c.041.15.1.29.129.448a5.763,5.763,0,0,1-1.173,4.029s5.625-.6,5.666-2.82a11.5,11.5,0,0,1,.245-2.207c.17-.51.515-3.061.515-3.061S124.085,53.275,123.742,53.022Z" transform="translate(-88.449 0.063)" fill="#4d1913"/>
    <path id="Tracé_173" data-name="Tracé 173" d="M147.023,53.022c.345-.256,6.576-4.087,6.576-4.087-.427,2.385-.749,3.359-.123,4.978a5.792,5.792,0,0,0,2.24,2.529,4.712,4.712,0,0,0,2.235.9,6.633,6.633,0,0,0,.913-.079,7.217,7.217,0,0,1-3.475.438,3.924,3.924,0,0,1-2.133-.606,3.092,3.092,0,0,1,.433,2.971c-1.875,3.813.629,5.061.629,5.061a7.269,7.269,0,0,1-3.489-1.335.773.773,0,0,1-.009.087A2.777,2.777,0,0,1,148.769,66s.939-.158.758-1.931c-.047-.473-.538-.659-1.153-.977-.237,1.71-1.012,3.458.591,4.171,0,0-2.708-.535-3.206-2.141a7.026,7.026,0,0,1-.181-.838,4.639,4.639,0,0,0-.132.448,5.8,5.8,0,0,0,1.173,4.029s-5.622-.6-5.663-2.82a11.5,11.5,0,0,0-.245-2.207c-.173-.51-.515-3.061-.515-3.061S146.684,53.275,147.023,53.022Z" transform="translate(-88.449 0.063)" fill="#4d1913"/>
    <path id="Tracé_174" data-name="Tracé 174" d="M135.431,18.731c-18.884,0-18.993,15.752-18.15,26.06-1.3-2.441-5.128-1.687-4.815,2.16.3,3.712,5.716,5.627,5.64,5.195,1.55,8.485,10.433,13.385,17.325,13.385.044,0,.1-.006.143-.006V18.735C135.524,18.735,135.475,18.731,135.431,18.731Z" transform="translate(-88.449 0.063)" fill="#ccad8b"/>
    <path id="Tracé_175" data-name="Tracé 175" d="M113.674,45.325a1.784,1.784,0,0,1,2.723-.518,1.545,1.545,0,0,1,.445,1.709c-.132.49-.655.53-.527,1.284a1.334,1.334,0,0,0,.755,1.091,1.747,1.747,0,0,1,.638.693,1.87,1.87,0,0,1,.082,1.063c-.141.608-1.03.123-1.627-.146a11.4,11.4,0,0,1-1.954-1.582A3.37,3.37,0,0,1,113.674,45.325Z" transform="translate(-88.449 0.063)" fill="#bc9f82"/>
    <path id="Tracé_176" data-name="Tracé 176" d="M135.521,18.731c18.885,0,18.99,15.752,18.154,26.06,1.292-2.441,5.124-1.687,4.811,2.16-.3,3.712-5.718,5.627-5.642,5.195-1.545,8.485-10.431,13.385-17.323,13.385-.046,0-.1-.006-.143-.006V18.735C135.428,18.735,135.475,18.731,135.521,18.731Z" transform="translate(-88.449 0.063)" fill="#d9bf9f"/>
    <path id="Tracé_177" data-name="Tracé 177" d="M157.278,45.325a1.787,1.787,0,0,0-2.726-.518,1.555,1.555,0,0,0-.441,1.709c.131.49.655.53.526,1.284a1.315,1.315,0,0,1-.758,1.091,1.732,1.732,0,0,0-.634.693,1.864,1.864,0,0,0-.085,1.063c.146.608,1.035.123,1.629-.146a11.283,11.283,0,0,0,1.954-1.582A3.368,3.368,0,0,0,157.278,45.325Z" transform="translate(-88.449 0.063)" fill="#bc9f82"/>
    <path id="Tracé_178" data-name="Tracé 178" d="M135.267,23.172c-6.216,0-10.761,1.8-13.517,5.348-3.843,4.955-3.7,12.529-2.275,17.961.432,1.663.655,6.139.953,7.785,1.34,7.349,9.477,11.265,14.839,11.265.044,0,.1-.006.143-.006V23.175C135.361,23.175,135.317,23.172,135.267,23.172Z" transform="translate(-88.449 0.063)" fill="#dcc5a1"/>
    <path id="Tracé_179" data-name="Tracé 179" d="M148.752,28.529C146.017,25,141.524,23.2,135.41,23.175v42.35c6.12-.065,13.432-4.355,14.69-11.259.3-1.644.521-6.122.957-7.785C152.469,41.064,152.61,33.5,148.752,28.529Z" transform="translate(-88.449 0.063)" fill="#edd9b4"/>
    <path id="Tracé_180" data-name="Tracé 180" d="M156.062,34.051a4.831,4.831,0,0,0-.4-.767,31.861,31.861,0,0,0-4.139-10.763c-1.945-2.807-6.713-5.291-12.835-6.034s-11.461,3.576-11.461,3.576a6.735,6.735,0,0,0-1.758-1.818c-.813-.413-3.142.078-3.142.078a5.632,5.632,0,0,1,1.89.856,1.683,1.683,0,0,1,.316,1.518,11.286,11.286,0,0,0-2.656-.816c-1.486-.042-3.15,1.832-3.15,1.832a5.379,5.379,0,0,1,2.72-.939,7.327,7.327,0,0,1,1.641.585s-2.194.229-6.306,4.718a12.777,12.777,0,0,0-3.107,7.858l2.6-1.488a6.8,6.8,0,0,0-1,1.6c-1.916,4.751.708,9.516.708,9.516s.854.087,1.638,1.915a36.123,36.123,0,0,1,1.72,5.547h.913s-1.969-7.65-.644-11.812c.369-1.148,1.357-3.5,2.738-3.581a4.954,4.954,0,0,0,1.313-2.366,9.7,9.7,0,0,1,3.648-4.7,1.518,1.518,0,0,1,1.784.249,12.136,12.136,0,0,1,5.031-1.981c3.244-.579,5.029,2.887,5.74,4.706a4.036,4.036,0,0,1,.342,2.726,8.651,8.651,0,0,0,1.219-4.464,5.6,5.6,0,0,0-.374-1.7c.421.214,2.27.729,2.644,5.5a4.814,4.814,0,0,1-1.866,3.8s4.557-1.882,3.615-7.685a9.9,9.9,0,0,1,2.235,3.55c.4,1.573,3.817,5.227,4.049,5.947,1.325,4.162-.641,11.812-.641,11.812H152a35.812,35.812,0,0,1,1.719-5.547c.782-1.828,1.639-1.915,1.639-1.915S157.98,38.8,156.062,34.051Zm-15.471-6.8c-.024-.032-.044-.067-.067-.094l.075.074Z" transform="translate(-88.449 0.063)" fill="#4d1913"/>
    <path id="Intersection_4" data-name="Intersection 4" d="M15.733,17.787A44.331,44.331,0,0,1,0,14.92c.054-.694.124-1.359.211-1.987A21.571,21.571,0,0,1,.65,10.551c.064-.334.152-.659.237-.983.125-.438.251-.858.389-1.271.112-.335.234-.659.363-.973A16.8,16.8,0,0,1,2.849,4.87,13.45,13.45,0,0,1,5.476,1.645,11.96,11.96,0,0,1,7.688.039.083.083,0,0,0,7.736.014.045.045,0,0,1,7.763,0,9.094,9.094,0,0,0,9.226,1.645c.848.833,2.074,1.931,3.636,3.225.1.076.214.179.325.266a7.569,7.569,0,0,0,10.164,0c.114-.087.225-.191.325-.266,1.574-1.294,2.8-2.391,3.651-3.225A9.594,9.594,0,0,0,28.788,0,.013.013,0,0,1,28.8.014a.152.152,0,0,0,.064.025,11.871,11.871,0,0,1,2.212,1.607A13.708,13.708,0,0,1,33.7,4.87a15.772,15.772,0,0,1,1.2,2.454c.125.314.251.638.362.973.149.413.275.833.4,1.271.087.324.16.649.237.983.163.7.295,1.43.4,2.215A44.235,44.235,0,0,1,15.77,17.787Z" transform="translate(28.691 71.061)" fill="#fdfbf8" stroke="rgba(0,0,0,0)" stroke-miterlimit="10" stroke-width="1"/>
    <path id="Tracé_182" data-name="Tracé 182" d="M126.366,72.643c.848.834,2.074,1.931,3.636,3.225H119.989a13.455,13.455,0,0,1,2.627-3.225Z" transform="translate(-88.449 0.063)" fill="#a1556b"/>
    <path id="Tracé_183" data-name="Tracé 183" d="M150.843,75.868H140.816c1.574-1.294,2.8-2.391,3.651-3.225h3.75A13.72,13.72,0,0,1,150.843,75.868Z" transform="translate(-88.449 0.063)" fill="#a1556b"/>
    <path id="Tracé_184" data-name="Tracé 184" d="M135.118,80.022a3.838,3.838,0,1,0,.889,7.573h0a3.86,3.86,0,0,0,2.674-2.278,3.833,3.833,0,0,0,.287-1.457A3.844,3.844,0,0,0,135.118,80.022Z" transform="translate(-88.449 0.063)" fill="#a1556b"/>
    <path id="Tracé_185" data-name="Tracé 185" d="M136.8,83.863a1.9,1.9,0,0,0-1.565-1.457h-.158a.413.413,0,0,0-.445.349v.026a2.03,2.03,0,0,1,.679.2h0c.038.015.082.034.123.055a2.005,2.005,0,0,1,.877.879,2.552,2.552,0,0,0-1.088-.816,2.191,2.191,0,0,0-.351-.114c-.047-.011-.093-.024-.143-.031l0,0h-.009c-.172-.058-.172.1-.184.219-.006.089-.023.16-.105.135-.059-.02-.117.03-.17.11l-.5.705a.812.812,0,0,0-.094.155c-.4.221-.181.353-.164.364h0v0c.024.017.082,0,.082,0a.621.621,0,0,1,.065.127.239.239,0,0,1-.006.064.048.048,0,0,1-.006.018.515.515,0,0,0-.006.384h0l.015.018.005.007.018.015a.14.14,0,0,0,.1.035.207.207,0,0,0,.129-.063h0c.076-.1.041-.255.006-.4a.048.048,0,0,1-.006-.018.193.193,0,0,1,.1-.234.058.058,0,0,1,.07.013.1.1,0,0,1,.027.1l0,.007a.226.226,0,0,0,0,.175h0s0,0,.006.007l0,0s0,.006.009.009a.065.065,0,0,1,.017.008.072.072,0,0,0,.027.006.086.086,0,0,0,.058-.031h0c.035-.042.017-.116,0-.18v-.006a.1.1,0,0,1,.02-.094l0,0h0s0,0,.006.007v0l.006,0c0,.006.006.007.012.01l.02,0a.069.069,0,0,0,.044-.02v0h0a.107.107,0,0,0,.009-.094.066.066,0,0,1,.026.072l0,0a.177.177,0,0,0,0,.128v0l.006,0,0,0,.006.007.011.008a.075.075,0,0,0,.021,0,.055.055,0,0,0,.041-.021h0c.029-.032.018-.085,0-.133l0,0a.082.082,0,0,1,.012-.059.056.056,0,0,1,.093.016.1.1,0,0,1,0,.053v.008c-.017.061-.035.129-.005.168h0v0l.008.007,0,0,.006.007.018.012a.081.081,0,0,0,.029,0,.072.072,0,0,0,.052-.029h0c.035-.039.021-.112,0-.174l0-.008a.089.089,0,0,1,.047-.1V84.5h0v.006l.237-.022c.591-.045,1.021-.093,1.32-.135C136.85,84.219,136.8,83.894,136.8,83.863Zm-2.641.508c-.088.032-.176.018-.194-.032s.041-.114.132-.146.176-.016.193.031S134.249,84.339,134.159,84.371Zm.7-1.164c.128.022.222.1.21.166s-.128.106-.251.084-.223-.1-.211-.164S134.726,83.187,134.855,83.207Zm.052.9c-.205.074-.4.045-.444-.067s.093-.26.3-.333.4-.042.442.068S135.112,84.04,134.907,84.112Zm.831.147c-.12.042-.237.026-.263-.041s.058-.154.178-.2.24-.025.266.043S135.861,84.216,135.738,84.259Z" transform="translate(-88.449 0.063)" fill="#fff"/>
  </g>
</svg>
