<svg id="Groupe_100" data-name="Groupe 100" xmlns="http://www.w3.org/2000/svg" width="88.92" height="89.232" viewBox="0 0 88.92 89.232">
  <rect id="Rectangle_17" data-name="Rectangle 17" rx="44.365" fill="#d2887e"/>
  <path id="Intersection_31" data-name="Intersection 31" d="M17.378,33.232A44.225,44.225,0,0,1,0,29.7c.5-5.41,2.148-8.963,4.03-11.288a11.511,11.511,0,0,1,6.88-4.331H11a1.138,1.138,0,0,0,.239-.051c.913-.252,1.533-1.59,1.951-3.508.076-.329.14-.669.19-1.036.1-.608.194-1.249.255-1.919.038-.4.073-.813.113-1.226.164-2.032.217-4.239.217-6.34,0,0,2.434.241,4.393.241V33.225q-.393.007-.788.007Z" transform="translate(26.987 55.499)" fill="#dcc5a1" stroke="rgba(0,0,0,0)" stroke-miterlimit="10" stroke-width="1"/>
  <path id="Intersection_30" data-name="Intersection 30" d="M0,.241H.041C2,.241,4.45,0,4.45,0c0,2.085.049,4.271.213,6.288.039.409.076.809.117,1.2.076.695.152,1.353.251,1.971v.01c.039.279.088.529.141.788.38,1.85.936,3.217,1.746,3.671a1.118,1.118,0,0,0,.19.074,1.029,1.029,0,0,0,.407.077,11.554,11.554,0,0,1,7.132,4.647A20.284,20.284,0,0,1,18.34,28.907,44.166,44.166,0,0,1,0,33.225Z" transform="translate(45.344 55.499)" fill="#edd9b4" stroke="rgba(0,0,0,0)" stroke-miterlimit="10" stroke-width="1"/>
  <path id="Tracé_91" data-name="Tracé 91" d="M761.015,64.91v.013a5.831,5.831,0,0,1-5,2.715h-.027a6.3,6.3,0,0,1-4.978-2.7c.1-.6.19-1.249.251-1.918.038-.4.076-.81.114-1.223a19.984,19.984,0,0,0,4.564.592h.049a18.717,18.717,0,0,0,4.663-.644c.038.4.073.811.114,1.2C760.84,63.636,760.916,64.292,761.015,64.91Z" transform="translate(-710.64 0.055)" fill="#bc9f82" opacity="0.7"/>
  <path id="Intersection_29" data-name="Intersection 29" d="M17.378,14.821A44.225,44.225,0,0,1,0,11.288C.5,5.878,2.148,2.326,4.03,0a9.849,9.849,0,0,0,7.043,5.1,63.314,63.314,0,0,0,7.283.922c3.777.281,7.337-.337,9.291-1.4A20.278,20.278,0,0,0,33,.316,20.284,20.284,0,0,1,36.7,10.5a44.194,44.194,0,0,1-19.129,4.324Z" transform="translate(26.987 73.909)" fill="#2b1910" stroke="rgba(0,0,0,0)" stroke-miterlimit="10" stroke-width="1"/>
  <path id="Tracé_93" data-name="Tracé 93" d="M763.183,69.9a3.423,3.423,0,0,1-.781-2.527c.146-.9-1.325-.858-1.325-.858s.532.713.035,1.207-2.363,1.141-5.157,1.141-3.96-.351-4.589-.7-1.214-1.134-.357-1.888a2.433,2.433,0,0,0-1.521.491c-.8.567.506.984.035,1.717a5.414,5.414,0,0,1-1.252,1.7c-.9.849-.027,1.353,1.217,2a12.127,12.127,0,0,0,2.322,1,4.175,4.175,0,0,0,8.217.013,9.661,9.661,0,0,0,3.165-1.695C764.555,70.474,763.736,70.651,763.183,69.9Zm-7.263,5.692a2.511,2.511,0,1,1,2.518-2.512A2.517,2.517,0,0,1,755.92,75.592Z" transform="translate(-710.64 0.055)" fill="#f8f7e0"/>
  <path id="Tracé_94" data-name="Tracé 94" d="M755.973,20.1c-18.855-.034-18.967,15.066-18.127,24.911-1.293-2.31-5.116-1.453-4.806,2.25.3,3.541,5.707,5.145,5.634,4.757,1.541,8.022,10.428,12.477,17.3,13.113.046,0,.1,0,.146,0V20.106C756.069,20.106,756.019,20.1,755.973,20.1Z" transform="translate(-710.64 0.055)" fill="#ccad8b"/>
  <path id="Tracé_95" data-name="Tracé 95" d="M733.988,45.7a1.866,1.866,0,0,1,2.764-.5,1.436,1.436,0,0,1,.447,1.639c-.134.476-.661.512-.532,1.236a1.281,1.281,0,0,0,.766,1.05,1.73,1.73,0,0,1,.644.668,1.686,1.686,0,0,1,.085,1.022c-.144.586-1.044.12-1.65-.141a11.648,11.648,0,0,1-1.98-1.523A3.109,3.109,0,0,1,733.988,45.7Z" transform="translate(-710.64 0.055)" fill="#bc9f82"/>
  <path id="Tracé_96" data-name="Tracé 96" d="M756.066,20.1c18.855-.034,18.963,15.066,18.124,24.911,1.3-2.31,5.119-1.453,4.809,2.25-.3,3.541-5.707,5.145-5.631,4.757-1.544,8.022-10.431,12.477-17.3,13.113-.047,0-.1,0-.143,0V20.106Z" transform="translate(-710.64 0.055)" fill="#d9bf9f"/>
  <path id="Tracé_97" data-name="Tracé 97" d="M778.183,45.7a1.866,1.866,0,0,0-2.764-.5,1.444,1.444,0,0,0-.448,1.639c.135.476.664.512.535,1.236a1.286,1.286,0,0,1-.766,1.05,1.451,1.451,0,0,0-.731,1.69c.146.586,1.047.12,1.649-.141a11.458,11.458,0,0,0,1.981-1.523A3.111,3.111,0,0,0,778.183,45.7Z" transform="translate(-710.64 0.055)" fill="#bc9f82"/>
  <path id="Tracé_98" data-name="Tracé 98" d="M755.873,24.378c-6.3,0-10.9,1.73-13.7,5.147-3.9,4.769-3.744,12.054-2.311,17.286.439,1.6.664,5.9.968,7.491,1.36,7.072,9.609,10.839,15.038,10.839.047,0,.1,0,.146,0V24.382C755.97,24.382,755.923,24.378,755.873,24.378Z" transform="translate(-710.64 0.055)" fill="#dcc5a1"/>
  <path id="Tracé_99" data-name="Tracé 99" d="M769.539,29.531c-2.767-3.392-7.324-5.121-13.52-5.149V65.137c6.2-.066,13.614-4.192,14.889-10.835.3-1.586.527-5.892.968-7.491C773.307,41.6,773.453,34.319,769.539,29.531Z" transform="translate(-710.64 0.055)" fill="#edd9b4"/>
  <path id="Tracé_100" data-name="Tracé 100" d="M759.19,58.746a5.012,5.012,0,0,1-3.176,1.52,4.743,4.743,0,0,1-3.1-1.485,20.269,20.269,0,0,1,3.1-.231A25.929,25.929,0,0,1,759.19,58.746Z" transform="translate(-710.64 0.055)" fill="#b47070"/>
  <path id="Tracé_101" data-name="Tracé 101" d="M756.915,58.048a.932.932,0,0,1-1.8,0,12.642,12.642,0,0,0-2.279.7s1.734.182,2.235.182.93.2.942-.172c.005.371.362.229.857.229s2.319-.239,2.319-.239A12.687,12.687,0,0,0,756.915,58.048Z" transform="translate(-710.64 0.055)" fill="#c17874"/>
  <path id="Tracé_102" data-name="Tracé 102" d="M773.09,50.645c.363,0-.023-2.11,1.185-3.565s3.045-6.352,3.045-11.24-1.574-9.241-5.678-13.865A28.733,28.733,0,0,0,761.5,15.1l2.779,2.774s-1.5-2.252-6.868-4.054c-4.242-1.419-6.988.163-6.988.163s2.793-.106,3.641,1.226a4.7,4.7,0,0,0,1,.853s-1.3-3.191-7.336-.546S741.8,22.9,737.606,24.352c-4.3,1.49-5.543-.422-5.543-.422s1.866,3.351,5.177,3.359a2.4,2.4,0,0,0,.591-.016,32.879,32.879,0,0,0-1.48,6.27c-.243,2.735.515,4.606.749,9.721.2,4.374,1.293,2.131,2.592,5.352a7.384,7.384,0,0,1,.456,2.3c.48.126,1.743-2.627.836-7.406-.591-3.1,2.326-14.866,9.361-12.573,4.305,1.4,5.391,4.26,8.608,1.721,2.776-2.188,6.655-3.443,9.551-1.714s4.528,5.622,4.024,11.832C771.882,50.7,773.09,50.645,773.09,50.645Z" transform="translate(-710.64 0.055)" fill="#895a59"/>
</svg>
