<svg xmlns="http://www.w3.org/2000/svg" viewBox="0 0 88.885 89.231">
  <g id="Groupe_99" data-name="Groupe 99" transform="translate(0)">
    <rect id="Rectangle_15" data-name="Rectangle 15" width="88.885" height="88.73" rx="44.365" transform="translate(0)" fill="#f4f1c5"/>
    <path id="Tracé_227" data-name="Tracé 227" d="M685.029,64.789c0,5.777-7.86,10.46-17.557,10.46s-17.556-4.683-17.556-10.46,7.862-10.458,17.556-10.458S685.029,59.014,685.029,64.789Z" transform="translate(-621.755 0.055)" fill="#211915"/>
    <path id="Intersection_27" data-name="Intersection 27" d="M17.4,33.531A44.229,44.229,0,0,1,0,29.99a27.852,27.852,0,0,1,.682-4.158C3.247,15.132,11.012,14.2,11.012,14.2H11.1c.076-.015.164-.028.243-.052.921-.255,1.547-1.6,1.967-3.543.077-.328.141-.67.192-1.041.1-.61.19-1.263.254-1.935.04-.41.079-.818.117-1.238.164-2.051.22-4.279.22-6.393,0,0,2.452.244,4.432.244V33.521c-.323.007-.645.01-.969.01Z" transform="translate(26.966 55.199)" fill="#dcc5a1" stroke="rgba(0,0,0,0)" stroke-miterlimit="10" stroke-width="1"/>
    <path id="Intersection_28" data-name="Intersection 28" d="M0,.244H.041C2.02.244,4.487,0,4.487,0c0,2.1.05,4.306.22,6.345.037.406.075.814.112,1.207.077.7.153,1.364.252,1.99v.01c.041.282.094.537.144.791.383,1.872.944,3.246,1.763,3.707a1.228,1.228,0,0,0,.194.076,1.145,1.145,0,0,0,.41.077,2.769,2.769,0,0,1,.357.064A12.4,12.4,0,0,1,15.774,20.4a21.8,21.8,0,0,1,2.713,8.645A44.161,44.161,0,0,1,0,33.521Z" transform="translate(45.489 55.199)" fill="#edd9b4" stroke="rgba(0,0,0,0)" stroke-miterlimit="10" stroke-width="1"/>
    <path id="Tracé_230" data-name="Tracé 230" d="M672.316,64.687V64.7a5.891,5.891,0,0,1-5.049,2.737h-.023a6.371,6.371,0,0,1-5.028-2.723c.1-.613.19-1.264.257-1.935.038-.409.076-.818.114-1.238a20.345,20.345,0,0,0,4.6.6h.056a19.266,19.266,0,0,0,4.7-.647c.041.4.076.811.117,1.207C672.135,63.4,672.211,64.063,672.316,64.687Z" transform="translate(-621.755 0.055)" fill="#bc9f82" opacity="0.7"/>
    <path id="Intersection_26" data-name="Intersection 26" d="M19.056,19.328a44.315,44.315,0,0,1-14.432-2.4,20.992,20.992,0,0,1,1.012-4.192l-3.3-1.107L0,10.839S5.29.432,12.668,0c.189-.015-5.488,8.267,2.07,10.188a19.207,19.207,0,0,0,5.441.571h.041a19.226,19.226,0,0,0,5.444-.571C33.22,8.267,27.545-.015,27.737,0,35.11.432,40.4,10.839,40.4,10.839l-2.34.79-3.3,1.107a20.284,20.284,0,0,1,.895,3.444,44.24,44.24,0,0,1-16.447,3.149Z" transform="translate(25.309 69.402)" fill="#856da5" stroke="rgba(0,0,0,0)" stroke-miterlimit="10" stroke-width="1"/>
    <path id="Tracé_232" data-name="Tracé 232" d="M667.226,19.487c-19.021-.035-19.13,15.195-18.284,25.13-1.308-2.331-5.163-1.468-4.85,2.267.3,3.571,5.756,5.192,5.681,4.8,1.559,8.1,10.521,12.59,17.453,13.227.047.006.1,0,.144.006V19.488Z" transform="translate(-621.755 0.055)" fill="#ccad8b"/>
    <path id="Tracé_233" data-name="Tracé 233" d="M645.048,45.305a1.894,1.894,0,0,1,2.791-.505,1.475,1.475,0,0,1,.45,1.661c-.134.476-.666.518-.538,1.246a1.31,1.31,0,0,0,.773,1.062,1.7,1.7,0,0,1,.652.672,1.761,1.761,0,0,1,.085,1.028c-.147.591-1.056.12-1.665-.139a11.505,11.505,0,0,1-2-1.536A3.149,3.149,0,0,1,645.048,45.305Z" transform="translate(-621.755 0.055)" fill="#bc9f82"/>
    <path id="Tracé_234" data-name="Tracé 234" d="M667.32,19.487c19.022-.035,19.133,15.195,18.288,25.13,1.3-2.331,5.163-1.468,4.844,2.267-.305,3.571-5.751,5.192-5.681,4.8-1.556,8.1-10.518,12.59-17.451,13.227-.047.006-.1,0-.146.006V19.488Z" transform="translate(-621.755 0.055)" fill="#d9bf9f"/>
    <path id="Tracé_235" data-name="Tracé 235" d="M689.633,45.305a1.89,1.89,0,0,0-2.788-.505,1.472,1.472,0,0,0-.453,1.661c.134.476.67.518.538,1.246a1.316,1.316,0,0,1-.772,1.062,1.687,1.687,0,0,0-.65.672,1.708,1.708,0,0,0-.088,1.028c.15.591,1.059.12,1.668-.139a11.6,11.6,0,0,0,1.995-1.536A3.143,3.143,0,0,0,689.633,45.305Z" transform="translate(-621.755 0.055)" fill="#bc9f82"/>
    <path id="Tracé_236" data-name="Tracé 236" d="M667.127,23.8c-6.353,0-11,1.746-13.818,5.193-3.928,4.809-3.779,12.163-2.328,17.439.444,1.611.669,5.957.976,7.557,1.37,7.134,9.691,10.935,15.17,10.935.047,0,.1-.007.146-.007V23.8C667.223,23.8,667.177,23.8,667.127,23.8Z" transform="translate(-621.755 0.055)" fill="#dcc5a1"/>
    <path id="Tracé_237" data-name="Tracé 237" d="M680.913,29c-2.794-3.424-7.389-5.167-13.64-5.195V64.914c6.257-.067,13.737-4.226,15.021-10.928.307-1.6.532-5.946.977-7.557C684.716,41.164,684.859,33.824,680.913,29Z" transform="translate(-621.755 0.055)" fill="#edd9b4"/>
    <path id="Tracé_238" data-name="Tracé 238" d="M670.473,58.468A5.077,5.077,0,0,1,667.267,60a4.782,4.782,0,0,1-3.124-1.495,20.328,20.328,0,0,1,3.124-.234A26.381,26.381,0,0,1,670.473,58.468Z" transform="translate(-621.755 0.055)" fill="#b47070"/>
    <path id="Tracé_239" data-name="Tracé 239" d="M668.171,57.764a.937.937,0,0,1-1.81,0,12.817,12.817,0,0,0-2.3.7s1.752.188,2.252.188.942.2.953-.176c.006.374.369.228.866.228s2.34-.24,2.34-.24A12.786,12.786,0,0,0,668.171,57.764Z" transform="translate(-621.755 0.055)" fill="#c17874"/>
    <path id="Tracé_240" data-name="Tracé 240" d="M683.973,54.76c-.077,1.373-.153,1.521.517,2.6s1.445,1.489.7,2.715-1.96,1.376-1.887,2.455c.076,1.094,1.41,1.594,1.187,3.044-.2,1.311-2.328,2.685-2.726,2.924.322-.229,1.691-1.29,1.5-2.624-.229-1.519-.4-1.593-2.03-2.454s-1.875-1.246-1.422-2.474,1.931-1.34.807-2.641-1.76-2.193-1.465-2.988-.193-1.387,1.12-2.919c.822-.931.7-3.04.7-3.981s1.328-5.49-.819-7.484c-.389-.355-1.047-1.171-1.842-2.118-.647-.775-1.393-1.645-2.136-2.412a11.431,11.431,0,0,1-1.951-3c-.482-1.008-.8-1.847-.874-2.035.023.221.163,1.194.263,1.961.029.283.064.534.073.721a4.456,4.456,0,0,0,1.694,3.2,14.816,14.816,0,0,1-3.657-2.813,6.214,6.214,0,0,1-.819-1.4,5.073,5.073,0,0,1-.108-3.85,19.293,19.293,0,0,1-2.662,3.291c-.1.1-.2.178-.313.274a36.965,36.965,0,0,1-4.194,2.811,10.963,10.963,0,0,0,2.3-2.958,4.772,4.772,0,0,0,.284-.568c.28-.648,1.41-4.047,1.41-4.047a51.17,51.17,0,0,1-2.867,4.543,16.833,16.833,0,0,1-3.06,3.277c-.433.34-1.015.8-1.661,1.337-2.34,1.921-5.587,4.815-5.877,6.4-.365,2.022.667,6.44,1.337,8.242s.743,2.393,0,3.114-2.6,2.025-2.3,2.675,1.413,1.729,1.184,2.6-2.661,2.947-2.971,4.12c-.542,2.069,2.679,3.829,3.059,4.027-.389-.124-4.744-1.76-4.247-3.953.325-1.425.076-1.655-.743-2.746s-2.007-2.9-.9-3.973c1.12-1.093,2.674-2.32,2.305-3.547s-4.356-9.737-4.356-12.747a26.173,26.173,0,0,1,.553-4.486,34.843,34.843,0,0,1,1.39-5.089c1.261-3.45,3.2-6.889,6.145-8.748,6.316-3.973,10.767-4.591,13-4.088s4.495-.381,5.086-.152,6.3,2.576,8.454,4.954c1.658,1.848,5.777,6.347,7.567,11.569a14.5,14.5,0,0,1,.863,4.763c0,.177,0,.354-.012.534C689.308,47.48,684.046,53.417,683.973,54.76Z" transform="translate(-621.755 0.055)" fill="#211915"/>
  </g>
</svg>
