<svg id="Groupe_97" data-name="Groupe 97" xmlns="http://www.w3.org/2000/svg" viewBox="0 0 88.885 89.743">
  <rect id="Rectangle_20" data-name="Rectangle 20" width="88.885" height="89.243" rx="44.443" fill="#d2887e"/>
  <path id="Tracé_45" data-name="Tracé 45" d="M508.722,89.292l-1.533-.641h-1.53l-11.7.641" transform="translate(-443.984 0.052)" fill="none"/>
  <path id="Tracé_1393" data-name="Tracé 1393" d="M501.789,71.666c0,2.831-5.809,5.121-12.975,5.121s-12.976-2.29-12.976-5.121,5.809-5.122,12.976-5.122S501.789,68.839,501.789,71.666Z" transform="translate(-443.984 0.052)" fill="#5a4f51"/>
  <path id="Intersection_20" data-name="Intersection 20" d="M13.282,33.222A44.132,44.132,0,0,1,0,29.535C1.345,14.9,11.079,14.295,11.079,14.295c.842,0,1.475-.835,1.925-2.2q.209-.634.385-1.422c.076-.332.143-.679.193-1.049.105-.616.193-1.27.258-1.949.04-.412.075-.822.115-1.245.167-2.061.218-4.3.218-6.434,0,0,2.471.245,4.464.245V33.222Z" transform="translate(26.034 55.729)" fill="#dcc5a1" stroke="rgba(0,0,0,0)" stroke-miterlimit="10" stroke-width="1"/>
  <path id="Intersection_21" data-name="Intersection 21" d="M0,32.58V.245H.041C2.032.245,4.513,0,4.513,0c0,2.117.056,4.337.219,6.385.042.41.08.82.118,1.217.076.7.155,1.37.257,2v.015c.035.282.091.538.14.794a12.58,12.58,0,0,0,.451,1.7c.464,1.358,1.093,2.182,1.93,2.182,0,0,9.627.6,11.052,15.008A44.1,44.1,0,0,1,7.514,32.842Z" transform="translate(44.672 55.729)" fill="#edd9b4" stroke="rgba(0,0,0,0)" stroke-miterlimit="10" stroke-width="1"/>
  <path id="Tracé_1396" data-name="Tracé 1396" d="M493.76,65.285V65.3a5.935,5.935,0,0,1-5.081,2.754h-.023a6.4,6.4,0,0,1-5.055-2.744c.1-.612.193-1.267.258-1.947.038-.412.075-.819.111-1.241a20.1,20.1,0,0,0,4.633.6h.053a18.86,18.86,0,0,0,4.732-.653c.039.412.077.82.118,1.216C493.581,63.99,493.657,64.653,493.76,65.285Z" transform="translate(-443.984 0.052)" fill="#bc9f82" opacity="0.7"/>
  <path id="Tracé_1397" data-name="Tracé 1397" d="M494.149,72.145,493.956,88.9H483.192l-.129-17.008a21.25,21.25,0,0,0,5.952,1A18.731,18.731,0,0,0,494.149,72.145Z" transform="translate(-443.984 0.052)" fill="#b9c98e"/>
  <path id="Intersection_19" data-name="Intersection 19" d="M0,17.909q.005-.062.011-.125C.876,8.424,5.391,4.8,8.464,3.265a9,9,0,0,1,2.665-.9c.843,0,1.475-.833,1.925-2.193L13.1,4.93l1.468,4.745h8.188L24.18,5.187,24.245,0c.076.356.153.176.243.343.464,1.36,1.109,2.026,1.945,2.026a9.208,9.208,0,0,1,2.8.962c2.843,1.445,6.973,5,8.114,13.558q.053.38.1.774a44.278,44.278,0,0,1-18.988,4.249A44.282,44.282,0,0,1,0,17.909Z" transform="translate(25.984 67.332)" fill="#5a4f51" stroke="rgba(0,0,0,0)" stroke-miterlimit="10" stroke-width="1"/>
  <path id="Tracé_1399" data-name="Tracé 1399" d="M489.115,82.562h-.763l-3.209-4.029h7.181Z" transform="translate(-443.984 0.052)" fill="#b9c98e"/>
  <path id="Tracé_1400" data-name="Tracé 1400" d="M507.634,51.891s-1.094-1.377-.445-10.18a37.406,37.406,0,0,0-.7-9.589c.064.255-6.318,12.844-6.318,12.844-.22,3.518-.4,6.953-.442,9.338l-1.068-1.822a37.567,37.567,0,0,0-1.041,4.194c-.006.063-.006.137-.012.2l-3.445-3.417s.008,1.957.181,3.812l-2.086-2.07s.021,5.042.717,6.619c.784,1.774.076,6.689.076,6.689a14.339,14.339,0,0,0,2.106-3.647c-.082,1.09-.2,1.906-.2,1.906a15.336,15.336,0,0,0,2.741-5.526c.044.757.091,1.517.1,2.266a14.781,14.781,0,0,1-.845,4.7,20.752,20.752,0,0,0,2.864-6.735c.184,3.085.629,5.323,1.565,6.525-.123-.216-.6-1.225-.48-3.84.05-1.177.158-2.454.3-3.729a10.153,10.153,0,0,0,2.876,5.167,17.387,17.387,0,0,1-1.112-8.23c.111-.919.193-1.726.26-2.452a24.923,24.923,0,0,0,.489,4.181,15.919,15.919,0,0,0,2.39,5.9s-1.548-3.413-.132-12.656a16.809,16.809,0,0,0,.073-2.843C506.932,51.586,507.634,51.891,507.634,51.891Z" transform="translate(-443.984 0.052)" fill="#fdfdfd"/>
  <path id="Tracé_1401" data-name="Tracé 1401" d="M469.865,51.376s1.094-1.375.444-10.18a37.4,37.4,0,0,1,.7-9.59c-.065.256,6.318,12.845,6.318,12.845.216,3.515.4,6.949.439,9.334l1.07-1.821a37.731,37.731,0,0,1,1.039,4.19c.008.067.008.141.014.208l3.446-3.421s-.012,1.959-.184,3.812l2.085-2.068s-.017,5.041-.713,6.617c-.784,1.776-.076,6.688-.076,6.688a14.408,14.408,0,0,1-2.112-3.643c.087,1.086.2,1.906.2,1.906a15.359,15.359,0,0,1-2.743-5.526c-.044.756-.088,1.515-.1,2.266a14.823,14.823,0,0,0,.848,4.7,20.649,20.649,0,0,1-2.86-6.732c-.187,3.083-.632,5.321-1.571,6.524.126-.215.594-1.224.483-3.842-.05-1.175-.161-2.452-.3-3.728a10.176,10.176,0,0,1-2.878,5.165,17.37,17.37,0,0,0,1.108-8.231c-.108-.917-.189-1.723-.257-2.449a24.6,24.6,0,0,1-.491,4.18,15.918,15.918,0,0,1-2.39,5.9s1.547-3.415.134-12.656a16.708,16.708,0,0,1-.076-2.84C470.567,51.07,469.865,51.376,469.865,51.376Z" transform="translate(-443.984 0.052)" fill="#fdfdfd"/>
  <path id="Tracé_1402" data-name="Tracé 1402" d="M488.708,17.37c-19.428,0-19.539,16.2-18.674,26.812-1.333-2.515-5.273-1.735-4.952,2.222.313,3.815,5.88,5.788,5.8,5.343,1.594,8.734,10.735,13.772,17.825,13.772.047,0,.1-.006.147-.006V17.372Z" transform="translate(-443.984 0.052)" fill="#ccad8b"/>
  <path id="Tracé_1403" data-name="Tracé 1403" d="M466.323,44.729a1.843,1.843,0,0,1,2.8-.534,1.6,1.6,0,0,1,.456,1.76c-.137.507-.673.546-.541,1.322a1.354,1.354,0,0,0,.775,1.119,1.779,1.779,0,0,1,.655.719,1.9,1.9,0,0,1,.088,1.089c-.146.627-1.065.128-1.673-.149a11.884,11.884,0,0,1-2.013-1.628A3.471,3.471,0,0,1,466.323,44.729Z" transform="translate(-443.984 0.052)" fill="#bc9f82"/>
  <path id="Tracé_1404" data-name="Tracé 1404" d="M488.8,17.37c19.428,0,19.54,16.2,18.677,26.812,1.33-2.515,5.273-1.735,4.949,2.222-.31,3.815-5.879,5.788-5.8,5.343-1.594,8.734-10.735,13.772-17.825,13.772-.047,0-.1-.006-.146-.006V17.372Z" transform="translate(-443.984 0.052)" fill="#d9bf9f"/>
  <path id="Tracé_1405" data-name="Tracé 1405" d="M511.188,44.729a1.843,1.843,0,0,0-2.8-.534,1.609,1.609,0,0,0-.457,1.76c.138.507.673.546.544,1.322a1.355,1.355,0,0,1-.778,1.119,1.779,1.779,0,0,0-.655.719,1.9,1.9,0,0,0-.085,1.089c.146.627,1.062.128,1.673-.149a11.748,11.748,0,0,0,2.01-1.628A3.468,3.468,0,0,0,511.188,44.729Z" transform="translate(-443.984 0.052)" fill="#bc9f82"/>
  <path id="Tracé_1406" data-name="Tracé 1406" d="M488.539,21.937c-6.395,0-11.069,1.85-13.906,5.5-3.952,5.1-3.8,12.893-2.34,18.485.444,1.709.672,6.313.983,8.005,1.374,7.564,9.749,11.591,15.263,11.591.047,0,.1-.006.149-.006V21.943C488.638,21.943,488.591,21.937,488.539,21.937Z" transform="translate(-443.984 0.052)" fill="#dcc5a1"/>
  <path id="Tracé_1407" data-name="Tracé 1407" d="M502.412,27.448c-2.811-3.627-7.435-5.476-13.724-5.5v43.57c6.3-.068,13.821-4.481,15.114-11.585.307-1.689.535-6.3.983-8.005C506.238,40.345,506.382,32.564,502.412,27.448Z" transform="translate(-443.984 0.052)" fill="#edd9b4"/>
  <path id="Tracé_1408" data-name="Tracé 1408" d="M509.915,34.3a25.478,25.478,0,0,1-.237,3.152,5.282,5.282,0,0,1-.3,1.383,18.6,18.6,0,0,0-1.041,3.5,4.52,4.52,0,0,0-1.162,1.7c-.629,1.649-.88,1.373-.88,1.373s.2-1.306.427-2.9c.134-1.345.319-3.34.468-5.058.012-.238.041-.478.052-.7-.28-1.386-2.9-8.028-15.344-7.4a11.754,11.754,0,0,1-5.611-1.45c-1.626-.813-2.761-1.678-2.866-1.678-.55,0-5.529-.919-8.454,1.251a4.736,4.736,0,0,0-.523.427c-3.472,2.99-3.952,8.2-3.952,9.235,0,.094,0,.2.011.319.1,2.141.989,7.96.989,7.96s-.24.276-.88-1.373a4.568,4.568,0,0,0-1.39-1.9,14.876,14.876,0,0,1-1.427-3.3,9.2,9.2,0,0,0-.7-1.383c-.667-1.306-1.428-3.714-.626-9.554.041-.269.079-.535.12-.813.611-3.993,3.659-12.963,11.7-14.558s9.91-3.474,16.48-.8,10.723,4.541,12.742,8.946a28.051,28.051,0,0,1,1.84,7.225A52.573,52.573,0,0,1,509.915,34.3Z" transform="translate(-443.984 0.052)" fill="#fdfdfd"/>
</svg>
