<svg xmlns="http://www.w3.org/2000/svg" viewBox="0 0 88.885 89.231">
  <g id="Groupe_98" data-name="Groupe 98" transform="translate(0)">
    <rect id="Rectangle_21" data-name="Rectangle 21" width="88.885" height="88.73" rx="44.365" transform="translate(0)" fill="#b9c98e"/>
    <path id="Intersection_25" data-name="Intersection 25" d="M0,26.926c1.176-8.073,5.375-11.358,8.2-12.68a9.664,9.664,0,0,1,2.7-.851h.091a1.823,1.823,0,0,0,.243-.05c.923-.239,1.552-1.512,1.976-3.339.076-.311.141-.634.193-.983.1-.579.193-1.191.257-1.826.039-.386.079-.769.117-1.166.164-1.932.216-4.037.216-6.031,0,0,2.466.228,4.459.228v31.3A44.126,44.126,0,0,1,0,26.926Z" transform="translate(24.638 57.188)" fill="#dcc5a1" stroke="rgba(0,0,0,0)" stroke-miterlimit="10" stroke-width="1"/>
    <path id="Intersection_23" data-name="Intersection 23" d="M1.277,31.542c-.428,0-.852-.006-1.277-.018V.228H.039C2.03.228,4.507,0,4.507,0c0,1.985.05,4.061.22,5.981.034.385.076.768.117,1.14C4.92,7.784,5,8.409,5.1,9v.012c.038.264.091.506.14.743.383,1.768.95,3.064,1.772,3.5a2.054,2.054,0,0,0,.194.071,1.176,1.176,0,0,0,.413.074,8.633,8.633,0,0,1,2.205.633c2.939,1.222,7.852,4.631,8.831,14.048A44.223,44.223,0,0,1,1.432,31.542Z" transform="translate(43.088 57.188)" fill="#edd9b4" stroke="rgba(0,0,0,0)" stroke-miterlimit="10" stroke-width="1"/>
    <path id="Intersection_22" data-name="Intersection 22" d="M3.623,18.169q-1.209,0-2.4-.064c-.151-.723-.3-1.383-.462-2.173C.356,14,0,12.285,0,12.285c.025-.039.558-.454,1.38-1.149.342-.279.733-.618,1.182-1C5.522,7.6,10.261,3.3,12.25,0a12.332,12.332,0,0,1,4.229,3.108A15.639,15.639,0,0,1,19.27,7.587a24.72,24.72,0,0,1,1.687,7.134A44.221,44.221,0,0,1,3.778,18.169Z" transform="translate(40.742 70.561)" fill="#fdfdfd" stroke="rgba(0,0,0,0)" stroke-miterlimit="10" stroke-width="1"/>
    <path id="Intersection_24" data-name="Intersection 24" d="M0,13.733A23.758,23.758,0,0,1,1.576,7.589,15.7,15.7,0,0,1,4.363,3.11,12.417,12.417,0,0,1,8.6,0c1.986,3.3,6.728,7.6,9.691,10.14.444.378.836.716,1.179,1,.821.694,1.354,1.11,1.382,1.148,0,0-.356,1.717-.762,3.649-.172.812-.355,1.656-.521,2.437A44.171,44.171,0,0,1,0,13.733Z" transform="translate(24.589 70.357)" fill="#fdfdfd" stroke="rgba(0,0,0,0)" stroke-miterlimit="10" stroke-width="1"/>
    <path id="Tracé_216" data-name="Tracé 216" d="M580.826,64.466l.089.722a5.5,5.5,0,0,1-4.867,2.51h-.026a6.31,6.31,0,0,1-4.978-2.705c.1-.6.187-1.25.251-1.92.041-.4.076-.809.117-1.223a20.006,20.006,0,0,0,4.557.594h.053a18.945,18.945,0,0,0,4.662-.644c.036.4.077.809.115,1.2C580.875,63.694,580.724,63.847,580.826,64.466Z" transform="translate(-532.87 0.055)" fill="#bc9f82" opacity="0.7"/>
    <path id="Tracé_217" data-name="Tracé 217" d="M576.2,20.163c-18.855-.035-18.964,15.065-18.127,24.91-1.293-2.312-5.116-1.452-4.8,2.248.3,3.544,5.7,5.148,5.631,4.758,1.541,8.022,10.431,12.48,17.3,13.113.05,0,.1,0,.146,0V20.164Z" transform="translate(-532.87 0.055)" fill="#ccad8b"/>
    <path id="Tracé_218" data-name="Tracé 218" d="M554.213,45.757a1.865,1.865,0,0,1,2.761-.5,1.445,1.445,0,0,1,.45,1.64c-.134.476-.664.514-.532,1.236a1.3,1.3,0,0,0,.764,1.054,1.667,1.667,0,0,1,.646.666,1.7,1.7,0,0,1,.082,1.021c-.143.585-1.044.119-1.65-.14a11.327,11.327,0,0,1-1.977-1.522A3.115,3.115,0,0,1,554.213,45.757Z" transform="translate(-532.87 0.055)" fill="#bc9f82"/>
    <path id="Tracé_219" data-name="Tracé 219" d="M576.289,20.163c18.858-.035,18.966,15.065,18.126,24.91,1.293-2.312,5.119-1.452,4.806,2.248-.3,3.544-5.707,5.148-5.628,4.758-1.544,8.022-10.431,12.48-17.3,13.113-.044,0-.1,0-.144,0V20.164Z" transform="translate(-532.87 0.055)" fill="#d9bf9f"/>
    <path id="Tracé_220" data-name="Tracé 220" d="M598.408,45.757a1.868,1.868,0,0,0-2.764-.5,1.443,1.443,0,0,0-.448,1.64c.132.476.664.514.536,1.236a1.3,1.3,0,0,1-.77,1.054,1.443,1.443,0,0,0-.728,1.687c.146.585,1.044.119,1.649-.14a11.32,11.32,0,0,0,1.981-1.522A3.122,3.122,0,0,0,598.408,45.757Z" transform="translate(-532.87 0.055)" fill="#bc9f82"/>
    <path id="Tracé_221" data-name="Tracé 221" d="M576.1,24.433c-6.3,0-10.907,1.734-13.7,5.148-3.893,4.769-3.744,12.059-2.3,17.289.439,1.6.661,5.909.965,7.491,1.358,7.07,9.606,10.839,15.041,10.839.047,0,.1,0,.147,0V24.439C576.192,24.439,576.145,24.433,576.1,24.433Z" transform="translate(-532.87 0.055)" fill="#dcc5a1"/>
    <path id="Tracé_222" data-name="Tracé 222" d="M589.764,29.592c-2.77-3.395-7.324-5.125-13.519-5.153V65.2c6.2-.064,13.613-4.193,14.888-10.835.3-1.582.527-5.893.966-7.491C593.532,41.654,593.672,34.378,589.764,29.592Z" transform="translate(-532.87 0.055)" fill="#edd9b4"/>
    <path id="Tracé_223" data-name="Tracé 223" d="M579.412,58.807a5.025,5.025,0,0,1-3.176,1.517,4.747,4.747,0,0,1-3.1-1.485,20.372,20.372,0,0,1,3.1-.23A25.733,25.733,0,0,1,579.412,58.807Z" transform="translate(-532.87 0.055)" fill="#b47070"/>
    <path id="Tracé_224" data-name="Tracé 224" d="M577.134,58.108a.931.931,0,0,1-1.8,0,12.781,12.781,0,0,0-2.282.7s1.738.183,2.235.183.936.194.945-.174c.009.371.365.228.857.228s2.319-.237,2.319-.237A12.72,12.72,0,0,0,577.134,58.108Z" transform="translate(-532.87 0.055)" fill="#c17874"/>
    <path id="Tracé_225" data-name="Tracé 225" d="M562.965,40.495Z" transform="translate(-532.87 0.055)" fill="#362c1d"/>
    <path id="Tracé_226" data-name="Tracé 226" d="M595,24.258c-1.69-2.593-1.813-1.861-1.813-1.861s1.7-7.077-8.869-8.643a24.643,24.643,0,0,0-4.148-.121l1.439,1.452a29.743,29.743,0,0,0-12.9-.758c-5.342.824-8.986,3.442-12.008,7.712a19.01,19.01,0,0,0-2.644,7.069l2.764-3.67a18.227,18.227,0,0,0-2.764,12.394c1.635,12.329,7.374,14.617,7.374,14.617s-3.952-7.393-1.343-12.181a15.406,15.406,0,0,1,12.183-8.281,11.093,11.093,0,0,0-9.293,8.469.33.33,0,0,0-.011.039,6.008,6.008,0,0,1,3.694-3.471c1.735-.664,4-.643,6.6-1.323a13.683,13.683,0,0,0-2.765,6.4,16.423,16.423,0,0,1,7.922-5.8c.322-.122.678-.255,1.05-.394a6.885,6.885,0,0,0-.535,6.424s-.193-3.229,6.868-5.249c4.063-1.164,4.715-3.457,4.715-3.457a12.646,12.646,0,0,0,.521,3.723c.634,1.687,2.433,2.785,2.562,4.306.234,2.829-1.293,8.135-1.293,8.135L594.594,48a67.806,67.806,0,0,0,2.293-14.217C596.887,30.6,596.287,26.228,595,24.258Z" transform="translate(-532.87 0.055)" fill="#362c1d"/>
  </g>
</svg>
