<svg id="Groupe_95" data-name="Groupe 95" xmlns="http://www.w3.org/2000/svg" viewBox="0 0 88.877 89.348">
  <rect id="Rectangle_33" data-name="Rectangle 33" width="88.877" height="88.848" rx="44.424" fill="#b9c98e"/>
  <path id="Tracé_44" data-name="Tracé 44" d="M293.026,61.309c.009.016.015.037.023.052C293.131,61.463,293.111,61.431,293.026,61.309Z" transform="translate(-266.219 0.063)" fill="#362c1d"/>
  <path id="Intersection_14" data-name="Intersection 14" d="M17.478,31.725A44.275,44.275,0,0,1,0,28.155c1.334-13.636,10.39-14.722,10.39-14.722h.088a1.436,1.436,0,0,0,.225-.049c.872-.24,1.466-1.516,1.863-3.349.076-.312.132-.639.182-.987.1-.58.181-1.192.243-1.832.038-.384.073-.774.108-1.169C13.258,4.106,13.3,2,13.3,0c0,0,2.322.23,4.2.23v31.5Z" transform="translate(26.946 57.123)" fill="#dcc5a1" stroke="rgba(0,0,0,0)" stroke-miterlimit="10" stroke-width="1"/>
  <path id="Intersection_13" data-name="Intersection 13" d="M0,31.725V.23H.035C1.911.23,4.244,0,4.244,0c0,1.986.05,4.073.205,6,.035.389.073.773.108,1.146.074.663.149,1.29.243,1.878v.013c.035.266.082.507.131.748.363,1.771.9,3.073,1.67,3.506a1.015,1.015,0,0,0,.181.073,1.036,1.036,0,0,0,.386.071s9.044,1.083,10.39,14.689a44.269,44.269,0,0,1-17.554,3.6Z" transform="translate(44.447 57.123)" fill="#edd9b4" stroke="rgba(0,0,0,0)" stroke-miterlimit="10" stroke-width="1"/>
  <path id="Tracé_1023" data-name="Tracé 1023" d="M315.464,66.088v.01a5.577,5.577,0,0,1-4.777,2.594h-.023a6.008,6.008,0,0,1-4.75-2.583c.093-.578.178-1.191.24-1.829.035-.385.073-.772.108-1.168a19.13,19.13,0,0,0,4.352.567h.05a18.041,18.041,0,0,0,4.449-.615c.035.385.073.77.108,1.142C315.3,64.869,315.368,65.5,315.464,66.088Z" transform="translate(-266.219 0.063)" fill="#bc9f82" opacity="0.7"/>
  <path id="Intersection_12" data-name="Intersection 12" d="M17.435,11.323A44.278,44.278,0,0,1,0,7.771,23.982,23.982,0,0,1,1.3,1.805C5.181-.843,13.189-.808,17.506,3.46c0,0,6.672-5.439,13.455-2.577A9.975,9.975,0,0,1,34.178,3.03,25.69,25.69,0,0,1,35.06,7.7a44.284,44.284,0,0,1-17.6,3.621Z" transform="translate(26.989 77.525)" fill="#5a4f51" stroke="rgba(0,0,0,0)" stroke-miterlimit="10" stroke-width="1"/>
  <path id="Intersection_15" data-name="Intersection 15" d="M0,17.84a7.737,7.737,0,0,1,.732-3.619c1.293-2.676-.03-4.259.13-5.383A7.219,7.219,0,0,1,4.4,4.586C6.015,4,5.92,4.392,7.965,3.906s4.35-1.63,4.35-2.913A4.562,4.562,0,0,0,12.268.22c.518.305,2.009.916,1.336,6.082-.807,6.207-7.754,5.189-9.746,8.506A10.043,10.043,0,0,0,2.52,18.853Q1.243,18.384,0,17.84ZM12.1.038s.106-.161.169.182C12.164.158,12.1.109,12.1.038Z" transform="translate(26.581 67.281)" fill="#895a59" stroke="rgba(0,0,0,0)" stroke-miterlimit="10" stroke-width="1"/>
  <path id="Intersection_11" data-name="Intersection 11" d="M9.914,14.808C7.925,11.491.979,12.509.171,6.3-.5,1.148.983.529,1.5.222A4.518,4.518,0,0,0,1.458.99c0,1.284,2.25,2.572,4.294,3.051S7.762,4,9.38,4.588a7.222,7.222,0,0,1,3.53,4.249c.155,1.127-1.164,2.706.13,5.384a8.433,8.433,0,0,1,.8,3.748q-1.282.566-2.605,1.053A9.824,9.824,0,0,0,9.914,14.808ZM1.678.038c0,.072-.066.122-.173.184C1.569-.126,1.678.038,1.678.038Z" transform="translate(48.556 67.108)" fill="#895a59" stroke="rgba(0,0,0,0)" stroke-miterlimit="10" stroke-width="1"/>
  <path id="Tracé_1027" data-name="Tracé 1027" d="M310.652,23.328c-18-.034-18.1,14.373-17.3,23.774-1.237-2.206-4.885-1.387-4.586,2.144.286,3.379,5.446,4.911,5.373,4.542,1.472,7.654,9.954,11.907,16.512,12.511.041,0,.094,0,.138,0V23.329Z" transform="translate(-266.219 0.063)" fill="#ccad8b"/>
  <path id="Tracé_1028" data-name="Tracé 1028" d="M289.671,47.754a1.782,1.782,0,0,1,2.635-.477,1.372,1.372,0,0,1,.427,1.566c-.125.457-.632.493-.506,1.181a1.247,1.247,0,0,0,.729,1,1.64,1.64,0,0,1,.62.637,1.608,1.608,0,0,1,.076.974c-.138.56-1,.115-1.574-.134a10.936,10.936,0,0,1-1.889-1.454A2.97,2.97,0,0,1,289.671,47.754Z" transform="translate(-266.219 0.063)" fill="#bc9f82"/>
  <path id="Tracé_1029" data-name="Tracé 1029" d="M310.74,23.328c17.995-.034,18.1,14.373,17.3,23.774,1.235-2.206,4.885-1.387,4.584,2.144-.287,3.379-5.444,4.911-5.368,4.542C325.778,61.442,317.3,65.695,310.74,66.3c-.047,0-.094,0-.137,0V23.329Z" transform="translate(-266.219 0.063)" fill="#d9bf9f"/>
  <path id="Tracé_1030" data-name="Tracé 1030" d="M331.848,47.754a1.787,1.787,0,0,0-2.639-.477,1.381,1.381,0,0,0-.427,1.566c.129.457.632.493.509,1.181a1.239,1.239,0,0,1-.731,1c-.211.174-.483.309-.615.637a1.641,1.641,0,0,0-.081.974c.14.56,1,.115,1.573-.134a10.792,10.792,0,0,0,1.89-1.454A2.974,2.974,0,0,0,331.848,47.754Z" transform="translate(-266.219 0.063)" fill="#bc9f82"/>
  <path id="Tracé_1031" data-name="Tracé 1031" d="M310.556,27.407c-6.011,0-10.41,1.651-13.072,4.91-3.715,4.552-3.575,11.506-2.2,16.5.418,1.527.635,5.639.922,7.148,1.3,6.752,9.17,10.345,14.353,10.345.044,0,.1,0,.137,0V27.412C310.646,27.412,310.6,27.407,310.556,27.407Z" transform="translate(-266.219 0.063)" fill="#dcc5a1"/>
  <path id="Tracé_1032" data-name="Tracé 1032" d="M323.6,32.324c-2.645-3.237-6.991-4.888-12.906-4.912V66.3c5.921-.06,12.993-4,14.21-10.341.29-1.509.5-5.621.925-7.148C327.2,43.836,327.331,36.891,323.6,32.324Z" transform="translate(-266.219 0.063)" fill="#edd9b4"/>
  <path id="Tracé_1033" data-name="Tracé 1033" d="M313.718,60.206a4.789,4.789,0,0,1-3.031,1.447,4.528,4.528,0,0,1-2.954-1.415,19.546,19.546,0,0,1,2.954-.218A24.9,24.9,0,0,1,313.718,60.206Z" transform="translate(-266.219 0.063)" fill="#b47070"/>
  <path id="Tracé_1034" data-name="Tracé 1034" d="M311.547,59.539a.89.89,0,0,1-1.716,0,12.069,12.069,0,0,0-2.174.667s1.656.176,2.133.176.889.186.9-.166c.006.354.352.216.819.216s2.212-.226,2.212-.226A12.1,12.1,0,0,0,311.547,59.539Z" transform="translate(-266.219 0.063)" fill="#c17874"/>
  <path id="Tracé_1035" data-name="Tracé 1035" d="M333.93,16.4c-.292-.813,1.188,5.678-2.746,6.741a12.405,12.405,0,0,0-1.9.678,7.141,7.141,0,0,1,.193-3.691A6.246,6.246,0,0,0,329,14.978a5.231,5.231,0,0,0-2.99-2.177,3.157,3.157,0,0,1,1.422,3.754c-.562,1.682-1.621,2.418-2.206,3.839a9.422,9.422,0,0,0-.538,1.778,2.7,2.7,0,0,0-.369-1.629c-.681-1.033-2.825-2.735-2.351-4.82,1.331-5.844-1.428-7.448-1.823-8.16s1.085,1.877.109,4.043a4.212,4.212,0,0,1-2.288,2.146,3.481,3.481,0,0,1-.7-2.741c1.331-5.842-1.427-7.445-1.819-8.162s1.082,1.877.1,4.047S312.8,8.8,311.311,10.361a8.154,8.154,0,0,0-.881,1.1,8.264,8.264,0,0,0-.883-1.1c-1.486-1.558-3.253-1.3-4.233-3.466s.5-4.76.108-4.045-3.156,2.317-1.822,8.161a3.469,3.469,0,0,1-.705,2.741,4.182,4.182,0,0,1-2.282-2.145c-.982-2.166.492-4.76.1-4.044s-3.153,2.316-1.819,8.158c.476,2.086-1.668,3.791-2.355,4.822a2.758,2.758,0,0,0-.366,1.63,9.436,9.436,0,0,0-.538-1.78c-.582-1.42-1.644-2.154-2.205-3.838a3.159,3.159,0,0,1,1.421-3.755,5.228,5.228,0,0,0-2.989,2.18,6.271,6.271,0,0,0-.474,5.147,7.134,7.134,0,0,1,.193,3.689,12.194,12.194,0,0,0-1.9-.679c-3.929-1.06-2.449-7.554-2.747-6.738s-1.936,4.794-.778,8.068c.608,1.727,1.076,2.348,3.615,4.753s1.471,1.17,2.838,3.619c1.351,2.419.038,3.946,0,6.933,0,.013,0,.025,0,.038s0,.013,0,.019,0,.038,0,.055l0,0c.129,3.127,8.08,5.647,17.879,5.647,9.875,0,17.884-2.561,17.884-5.723a2.009,2.009,0,0,0-.153-.733c-.2-2.541-1.208-4.011.035-6.239,1.37-2.446.293-1.21,2.835-3.618s3.01-3.024,3.621-4.752C335.869,21.193,334.223,17.217,333.93,16.4Z" transform="translate(-266.219 0.063)" fill="#5a4f51"/>
  <path id="Tracé_1036" data-name="Tracé 1036" d="M308.76,43.97c0,2.226-2.8,4.93-5.324,4.93s-4.929-1.966-4.929-4.2,0-4.114,2.411-4.753C305.118,38.843,308.76,41.739,308.76,43.97Z" transform="translate(-266.219 0.063)" fill="#5a4f51"/>
  <path id="Tracé_1037" data-name="Tracé 1037" d="M312.639,44.09c0,2.229,2.8,4.932,5.32,4.932s4.932-1.966,4.932-4.194,0-4.116-2.413-4.756C316.28,38.967,312.639,41.861,312.639,44.09Z" transform="translate(-266.219 0.063)" fill="#5a4f51"/>
  <path id="Tracé_1038" data-name="Tracé 1038" d="M306.964,44.37a3.9,3.9,0,0,1-3.545,3.286c-1.682,0-3.285-1.309-3.285-2.795s0-2.741,1.609-3.165C304.539,40.958,306.964,42.886,306.964,44.37Z" transform="translate(-266.219 0.063)" fill="#b9c98e"/>
  <path id="Tracé_1039" data-name="Tracé 1039" d="M314.309,44.586a3.9,3.9,0,0,0,3.545,3.286c1.679,0,3.282-1.309,3.282-2.794s0-2.743-1.606-3.166C316.736,41.176,314.309,43.1,314.309,44.586Z" transform="translate(-266.219 0.063)" fill="#b9c98e"/>
</svg>
