<svg xmlns="http://www.w3.org/2000/svg" viewBox="0 0 88.786 89.35">
  <g id="Groupe_96" data-name="Groupe 96" transform="translate(0)">
    <rect id="Rectangle_1" data-name="Rectangle 1" width="88.786" height="88.848" rx="44.393" transform="translate(0)" fill="#f4f1c5"/>
    <path id="Tracé_1371" data-name="Tracé 1371" d="M390.583,46.182a3.587,3.587,0,0,0-2.48-1.377,13.85,13.85,0,0,0-1.539-3.779c-2.088-2.843-7.33-.614-7.33-.614,0,3.348,1.17,5.022,0,7.707s-.252,1.326-2.422,3.96-2.574,3.309-3.1,5.2c-.991,3.584.416,7.934.667,8.83s-1.012-6.212,2.346-7.374a9.228,9.228,0,0,0,1.626-.743,9.877,9.877,0,0,1-.163,4.04,8.558,8.558,0,0,0,.4,5.63,4.587,4.587,0,0,0,2.554,2.384,3.812,3.812,0,0,1-1.211-4.109c.477-1.84,1.383-2.646,1.884-4.2a13.323,13.323,0,0,0,.459-1.944,3.627,3.627,0,0,0,.313,1.783c.582,1.132,2.416,2.993,2.009,5.275-1.137,6.395,1.223,8.147,1.557,8.93a8.45,8.45,0,0,1-.088-4.426A4.094,4.094,0,0,1,388.027,69a4.642,4.642,0,0,1,.6,3c-1.137,6.393,1.223,8.149,1.557,8.93a8.445,8.445,0,0,1-.088-4.425c.837-2.369,2.346-2.09,3.618-3.794a10.063,10.063,0,0,0,1.372-9.131C394.91,63.071,392.675,49.027,390.583,46.182Z" transform="translate(-355.199 0.063)" fill="#5a4f51"/>
    <path id="Tracé_1372" data-name="Tracé 1372" d="M426.544,57.168c-.52-1.889-.918-2.57-3.089-5.2s-1.257-1.283-2.424-3.963,0-4.356,0-7.708c0,0-5.245-2.227-7.334.615a14.067,14.067,0,0,0-1.538,3.78,3.589,3.589,0,0,0-2.481,1.379c-2.088,2.84-4.326,16.886-4.5,17.4a10.07,10.07,0,0,0,1.374,9.13c1.273,1.705,2.779,1.423,3.619,3.8a8.424,8.424,0,0,1-.091,4.423c.336-.782,2.694-2.536,1.556-8.93a4.609,4.609,0,0,1,.6-3,4.112,4.112,0,0,1,1.948,2.349,8.414,8.414,0,0,1-.088,4.424c.333-.781,2.7-2.532,1.559-8.925-.409-2.283,1.425-4.148,2.01-5.277a3.718,3.718,0,0,0,.313-1.783,12.531,12.531,0,0,0,.459,1.948c.5,1.553,1.4,2.356,1.884,4.2a3.822,3.822,0,0,1-1.214,4.112,4.585,4.585,0,0,0,2.553-2.388,8.555,8.555,0,0,0,.4-5.63,10.071,10.071,0,0,1-.164-4.036,9.238,9.238,0,0,0,1.629.74c3.355,1.163,2.092,8.265,2.346,7.373S427.536,60.75,426.544,57.168Z" transform="translate(-355.199 0.063)" fill="#5a4f51"/>
    <path id="Intersection_18" data-name="Intersection 18" d="M0,28.379c1.372-13.71,10.49-14.806,10.49-14.806,1.068,0,1.75-1.362,2.2-3.431.073-.319.135-.648.181-1,.1-.586.188-1.207.246-1.85.039-.391.073-.78.108-1.182.139-1.6.185-3.315.2-4.98.012-.378.012-.756.012-1.132,0,0,2.346.23,4.242.23V31.949h-.206A44.256,44.256,0,0,1,0,28.379Z" transform="translate(26.922 56.899)" fill="#dcc5a1" stroke="rgba(0,0,0,0)" stroke-miterlimit="10" stroke-width="1"/>
    <path id="Intersection_17" data-name="Intersection 17" d="M0,.23H.035C1.931.23,4.289,0,4.289,0c0,.44,0,.877.012,1.318.012,1.59.076,3.223.2,4.745.035.391.073.781.108,1.158.076.668.149,1.305.246,1.9v.016c.035.266.085.51.135.753.45,2.206,1.158,3.686,2.258,3.686,0,0,9.037,1.086,10.479,14.608A44.239,44.239,0,0,1,0,31.949Z" transform="translate(44.598 56.899)" fill="#edd9b4" stroke="rgba(0,0,0,0)" stroke-miterlimit="10" stroke-width="1"/>
    <path id="Tracé_1375" data-name="Tracé 1375" d="M404.647,66.515v.016a5.627,5.627,0,0,1-4.823,2.615H399.8A6.065,6.065,0,0,1,395,66.54c.1-.583.182-1.2.24-1.85.038-.388.076-.778.111-1.179a19.259,19.259,0,0,0,4.4.571h.046a18.094,18.094,0,0,0,4.5-.622c.035.391.073.781.108,1.159C404.477,65.288,404.551,65.922,404.647,66.515Z" transform="translate(-355.199 0.063)" fill="#bc9f82" opacity="0.7"/>
    <path id="Intersection_16" data-name="Intersection 16" d="M0,16.851C1.336,3.488,10.028,2.116,10.478,2.045h.013c.81,0,1.395-.777,1.822-2.045a1.882,1.882,0,0,0,.761.661c.62.339,1.8.668,4.639.668S22.43.72,22.942.247A.739.739,0,0,0,23.1,0c.415,1.219.977,1.986,1.725,2.045h.094S33.956,3.131,35.4,16.652A44.245,44.245,0,0,1,17.47,20.421,44.247,44.247,0,0,1,0,16.851Z" transform="translate(26.923 68.427)" fill="#895a59" stroke="rgba(0,0,0,0)" stroke-miterlimit="10" stroke-width="1"/>
    <path id="Tracé_1377" data-name="Tracé 1377" d="M407.164,72.212c-2.346,1.657-3.884,2.036-7.388,2.036s-4.7-.49-6.488-1.377c-1.258-.622-2.153-1.108-1.235-1.91a5.35,5.35,0,0,0,.547-.552h.012a8.325,8.325,0,0,0,.711-1.082c.477-.7-.855-1.094-.035-1.629a2.174,2.174,0,0,1,1.45-.429c-.3,1.1.158,1.6.457,1.755.62.34,1.8.668,4.639.668a9.559,9.559,0,0,0,4.815-.95c.52-.285.383-.855.371-1.1a1.153,1.153,0,0,1-.079-.224s1.565.093,1.43.859a3.037,3.037,0,0,0,.577,2.13c.07.1.132.2.205.285C407.717,71.409,408.548,71.239,407.164,72.212Z" transform="translate(-355.199 0.063)" fill="#403836"/>
    <path id="Tracé_1378" data-name="Tracé 1378" d="M390.272,79.65l-1.319-2.276L387.63,79.65l-1.319,2.276L387.63,84.2l1.322,2.279,1.319-2.279,1.319-2.277Z" transform="translate(-355.199 0.063)" fill="#5a4f51"/>
    <path id="Tracé_1379" data-name="Tracé 1379" d="M395.552,79.65l-1.322-2.276L392.91,79.65l-1.319,2.276L392.91,84.2l1.319,2.279,1.322-2.279,1.319-2.277Z" transform="translate(-355.199 0.063)" fill="#5a4f51"/>
    <path id="Tracé_1380" data-name="Tracé 1380" d="M400.829,79.65l-1.316-2.276L398.19,79.65l-1.319,2.276L398.19,84.2l1.322,2.279,1.316-2.279,1.322-2.277Z" transform="translate(-355.199 0.063)" fill="#5a4f51"/>
    <path id="Tracé_1381" data-name="Tracé 1381" d="M406.111,79.65l-1.322-2.276L403.47,79.65l-1.319,2.276L403.47,84.2l1.319,2.279,1.322-2.279,1.316-2.277Z" transform="translate(-355.199 0.063)" fill="#5a4f51"/>
    <path id="Tracé_1382" data-name="Tracé 1382" d="M411.388,79.65l-1.319-2.276L408.75,79.65l-1.322,2.276L408.75,84.2l1.319,2.279,1.319-2.279,1.322-2.277Z" transform="translate(-355.199 0.063)" fill="#5a4f51"/>
    <path id="Tracé_1383" data-name="Tracé 1383" d="M399.85,20.441c-18.457,0-18.563,15.4-17.741,25.472-1.266-2.388-5.007-1.652-4.7,2.11.295,3.624,5.587,5.5,5.511,5.076,1.515,8.292,10.2,13.083,16.933,13.083.044,0,.094-.008.141-.008V20.441Z" transform="translate(-355.199 0.063)" fill="#ccad8b"/>
    <path id="Tracé_1384" data-name="Tracé 1384" d="M378.585,46.432a1.749,1.749,0,0,1,2.664-.506,1.511,1.511,0,0,1,.433,1.669c-.128.483-.64.521-.511,1.256a1.3,1.3,0,0,0,.736,1.066,1.724,1.724,0,0,1,.621.679,1.8,1.8,0,0,1,.081,1.037c-.14.593-1.009.122-1.591-.144a10.981,10.981,0,0,1-1.907-1.546A3.289,3.289,0,0,1,378.585,46.432Z" transform="translate(-355.199 0.063)" fill="#bc9f82"/>
    <path id="Tracé_1385" data-name="Tracé 1385" d="M399.941,20.441c18.454,0,18.559,15.4,17.74,25.472,1.264-2.388,5.011-1.652,4.7,2.11-.3,3.624-5.587,5.5-5.517,5.076-1.509,8.292-10.194,13.083-16.927,13.083-.047,0-.1-.008-.144-.008V20.441Z" transform="translate(-355.199 0.063)" fill="#d9bf9f"/>
    <path id="Tracé_1386" data-name="Tracé 1386" d="M421.2,46.432a1.747,1.747,0,0,0-2.662-.506,1.518,1.518,0,0,0-.433,1.669c.129.483.638.521.515,1.256a1.3,1.3,0,0,1-.74,1.066,1.735,1.735,0,0,0-.623.679,1.848,1.848,0,0,0-.082,1.037c.141.593,1.01.122,1.592-.144a10.814,10.814,0,0,0,1.91-1.546A3.294,3.294,0,0,0,421.2,46.432Z" transform="translate(-355.199 0.063)" fill="#bc9f82"/>
    <path id="Tracé_1387" data-name="Tracé 1387" d="M399.692,24.781c-6.075,0-10.519,1.757-13.21,5.228-3.755,4.845-3.615,12.243-2.229,17.557.425,1.625.641,6,.936,7.6,1.308,7.185,9.261,11.011,14.5,11.011.041,0,.094-.008.137-.008V24.784C399.783,24.784,399.736,24.781,399.692,24.781Z" transform="translate(-355.199 0.063)" fill="#dcc5a1"/>
    <path id="Tracé_1388" data-name="Tracé 1388" d="M412.867,30.016c-2.668-3.446-7.061-5.2-13.038-5.232v41.39c5.982-.062,13.131-4.256,14.36-11,.292-1.607.509-5.98.933-7.6C416.5,42.265,416.64,34.876,412.867,30.016Z" transform="translate(-355.199 0.063)" fill="#edd9b4"/>
    <path id="Tracé_1389" data-name="Tracé 1389" d="M393.643,20.311c-2.018-2.459-3.364-6.2,0-8.912a11.867,11.867,0,0,1,7.8-2.82c1.387,0,5.423.393,6.546,2.82s4.262,3.994,1.46,6.23-1.811,3.8-8.363,3.8S393.643,20.311,393.643,20.311Z" transform="translate(-355.199 0.063)" fill="#5a4f51"/>
    <path id="Tracé_1390" data-name="Tracé 1390" d="M380.732,33.113c.234-2.791-2.785-1.562.813-5.694s6.037-6.481,8.822-7.375,6.154-3.126,11.259-2.681,7.894-1.339,10.568,2.458,3.6,4.137,4.642,8.38,4.525,7.515.465,6.994S380.732,33.113,380.732,33.113Z" transform="translate(-355.199 0.063)" fill="#895a59"/>
    <path id="Tracé_1391" data-name="Tracé 1391" d="M417.661,32.112c-1.258-.454-4.391-1.437-7.117-2.4a6.276,6.276,0,0,0-1.105-.426c-4.122-1.165-4.321-3.053-10.279-2.606s-13.745,4.249-16.837,5.365-3.9,4.021-3.668,7.26a20.663,20.663,0,0,0,1.032,5.363c3.894-2.569,7.907-5.7,12.374-6.144s6.528-.782,10.884,0c4.326.777,6.8.177,10.869,2.087,2.232,1.2,4.374,2.73,6.483,4.122a20.749,20.749,0,0,0,1.029-5.363C421.554,36.134,420.756,33.229,417.661,32.112Z" transform="translate(-355.199 0.063)" fill="#5a4f51"/>
    <path id="Tracé_1392" data-name="Tracé 1392" d="M410.556,59.731c-.278-.979-1.363-.681-3.358-1.37a27.292,27.292,0,0,0-7.357-1.067h-.023a27.288,27.288,0,0,0-7.354,1.067c-1.992.689-3.08.391-3.358,1.37a8.4,8.4,0,0,0,.456,3.284c.787,1.245,3.321,2.767,5.21,3.617,1.419.645,2.545.667,5.057.6,2.516.062,3.642.04,5.061-.6,1.887-.85,4.425-2.372,5.21-3.617A8.4,8.4,0,0,0,410.556,59.731Zm-3.762.475a13.761,13.761,0,0,1-3.674,2.288,3.7,3.7,0,0,1-1.819.25c-.4,0-.848-.009-1.36-.02l-.114,0-.117,0c-.509.011-.96.02-1.364.02a3.7,3.7,0,0,1-1.816-.25,12.627,12.627,0,0,1-3.718-2.365,4.98,4.98,0,0,1,1.071-.489,23.3,23.3,0,0,1,5.938-.829h.126a23.389,23.389,0,0,1,5.823.829,5.307,5.307,0,0,1,1.059.481A.551.551,0,0,1,406.794,60.206Z" transform="translate(-355.199 0.063)" fill="#5a4f51"/>
  </g>
</svg>
