<svg id="Groupe_94" data-name="Groupe 94" xmlns="http://www.w3.org/2000/svg" viewBox="0 0 88.885 89.35">
  <rect id="Rectangle_28" data-name="Rectangle 28" width="88.885" height="88.848" rx="44.424" fill="#8ec2ea"/>
  <path id="Intersection_10" data-name="Intersection 10" d="M17.7,32.81A44.275,44.275,0,0,1,0,29.145c1.369-14.129,10.75-15.254,10.75-15.254.813,0,1.4-.774,1.849-2.031a12.019,12.019,0,0,0,.4-1.481c.073-.323.138-.662.188-1.022.1-.6.186-1.234.25-1.894.035-.4.074-.8.112-1.208.161-2.005.214-4.185.214-6.255,0,0,2.4.237,4.338.237V32.809l-.365,0Z" transform="translate(26.725 56.038)" fill="#dcc5a1" stroke="rgba(0,0,0,0)" stroke-miterlimit="10" stroke-width="1"/>
  <path id="Intersection_9" data-name="Intersection 9" d="M0,.237H.038C1.974.237,4.387,0,4.387,0c0,2.057.05,4.21.214,6.2.035.4.073.8.111,1.184.076.684.149,1.332.247,1.943v.014c.04.274.09.524.139.769a8.909,8.909,0,0,0,.878,2.655c.373.714.848,1.122,1.435,1.122,0,0,9.223,1.106,10.712,14.9A44.235,44.235,0,0,1,0,32.809Z" transform="translate(44.826 56.038)" fill="#edd9b4" stroke="rgba(0,0,0,0)" stroke-miterlimit="10" stroke-width="1"/>
  <path id="Tracé_30" data-name="Tracé 30" d="M227.124,65.305v.016A5.767,5.767,0,0,1,222.186,68h-.023a6.235,6.235,0,0,1-4.914-2.666c.1-.6.187-1.236.251-1.9.035-.4.073-.8.111-1.206a19.768,19.768,0,0,0,4.5.585h.053a18.482,18.482,0,0,0,4.6-.636c.035.4.076.8.111,1.185C226.948,64.047,227.024,64.7,227.124,65.305Z" transform="translate(-177.334 0.063)" fill="#bc9f82" opacity="0.7"/>
  <path id="Intersection_7" data-name="Intersection 7" d="M17.675,21.077A44.272,44.272,0,0,1,0,17.422C1.357,3.175,10.753,2.043,10.753,2.043c.813,0,1.4-.778,1.849-2.043l5.5.437L24.08.915c.374.715.848,1.128,1.436,1.128,0,0,9.229,1.113,10.714,15a44.264,44.264,0,0,1-18.517,4.031Z" transform="translate(26.749 67.771)" fill="#5a4f51" stroke="rgba(0,0,0,0)" stroke-miterlimit="10" stroke-width="1"/>
  <path id="Tracé_1360" data-name="Tracé 1360" d="M228.622,69.056s-.7-3-1.211-3a59.135,59.135,0,0,0-5.475,2.3l1.573,3.3Z" transform="translate(-177.334 0.063)" fill="#14150c"/>
  <path id="Tracé_1361" data-name="Tracé 1361" d="M215.383,69.056s.7-3,1.211-3a59.244,59.244,0,0,1,5.479,2.3l-1.574,3.3Z" transform="translate(-177.334 0.063)" fill="#14150c"/>
  <path id="Intersection_8" data-name="Intersection 8" d="M16.206,18.424A44.377,44.377,0,0,1,2.221,16.178a22.248,22.248,0,0,0-.6-8.4A7.142,7.142,0,0,0,0,4.822,13.654,13.654,0,0,1,6.254,0L16.459,15.441l.114.17.109-.17L26.888,0a13.654,13.654,0,0,1,6.254,4.822,7.172,7.172,0,0,0-1.626,2.96A21.976,21.976,0,0,0,30.9,15.95a44.359,44.359,0,0,1-14.655,2.474Z" transform="translate(28.217 70.424)" fill="#010400" stroke="rgba(0,0,0,0)" stroke-miterlimit="10" stroke-width="1"/>
  <path id="Tracé_1363" data-name="Tracé 1363" d="M222.215,18.736c-18.884,0-18.995,15.754-18.153,26.061-1.293-2.443-5.124-1.688-4.812,2.161.3,3.708,5.713,5.624,5.64,5.194,1.547,8.485,10.434,13.386,17.325,13.386.044,0,.094-.009.141-.009V18.739Z" transform="translate(-177.334 0.063)" fill="#ccad8b"/>
  <path id="Tracé_1364" data-name="Tracé 1364" d="M200.455,45.331a1.794,1.794,0,0,1,2.73-.521,1.556,1.556,0,0,1,.439,1.711c-.129.491-.653.532-.524,1.284a1.333,1.333,0,0,0,.755,1.091,1.745,1.745,0,0,1,.634.693,1.809,1.809,0,0,1,.085,1.062c-.143.608-1.032.125-1.629-.148a11.211,11.211,0,0,1-1.951-1.578A3.37,3.37,0,0,1,200.455,45.331Z" transform="translate(-177.334 0.063)" fill="#bc9f82"/>
  <path id="Tracé_1365" data-name="Tracé 1365" d="M222.306,18.736c18.884,0,18.993,15.754,18.15,26.061,1.3-2.443,5.131-1.688,4.812,2.161-.3,3.708-5.716,5.624-5.637,5.194-1.55,8.485-10.436,13.386-17.325,13.386-.047,0-.1-.009-.143-.009V18.739Z" transform="translate(-177.334 0.063)" fill="#d9bf9f"/>
  <path id="Tracé_1366" data-name="Tracé 1366" d="M244.063,45.331a1.79,1.79,0,0,0-2.726-.521,1.555,1.555,0,0,0-.442,1.711c.129.491.655.532.526,1.284a1.324,1.324,0,0,1-.757,1.091,1.726,1.726,0,0,0-.635.693,1.859,1.859,0,0,0-.085,1.062c.144.608,1.033.125,1.63-.148a11.223,11.223,0,0,0,1.953-1.578A3.375,3.375,0,0,0,244.063,45.331Z" transform="translate(-177.334 0.063)" fill="#bc9f82"/>
  <path id="Tracé_1367" data-name="Tracé 1367" d="M222.048,23.178c-6.212,0-10.758,1.8-13.513,5.348-3.841,4.955-3.7,12.526-2.279,17.963.433,1.66.655,6.138.954,7.783,1.342,7.349,9.48,11.266,14.838,11.266.048,0,.1-.009.144-.009V23.182C222.145,23.182,222.1,23.178,222.048,23.178Z" transform="translate(-177.334 0.063)" fill="#dcc5a1"/>
  <path id="Tracé_1368" data-name="Tracé 1368" d="M235.533,28.53C232.8,25,228.3,23.21,222.192,23.182V65.529c6.119-.064,13.435-4.354,14.695-11.257.3-1.645.515-6.123.951-7.783C239.251,41.068,239.392,33.507,235.533,28.53Z" transform="translate(-177.334 0.063)" fill="#edd9b4"/>
  <path id="Tracé_1369" data-name="Tracé 1369" d="M226.43,57.655a1.609,1.609,0,0,0-.819.233c1,.585,1.723,2.216,1.723,4.136a6.714,6.714,0,0,1-.43,2.412c-.055.031-.114.059-.172.088-.521-1.115-2.554-1.953-4.985-1.953s-4.481.843-4.99,1.971l-.155-.079a6.7,6.7,0,0,1-.442-2.439c0-1.92.726-3.551,1.726-4.136a1.6,1.6,0,0,0-.819-.233c-1.4,0-2.539,1.956-2.539,4.369a6.143,6.143,0,0,0,.825,3.22c.538,1,2.171,1.815,4.288,2.142a9.626,9.626,0,0,0,2.106.229,9.836,9.836,0,0,0,2.238-.257,7.988,7.988,0,0,0,3.291-1.219c.985-.6,1.69-2.214,1.69-4.115C228.966,59.611,227.832,57.655,226.43,57.655Z" transform="translate(-177.334 0.063)" fill="#f8f7e0"/>
  <path id="Tracé_1370" data-name="Tracé 1370" d="M237.361,20.006c-4.457-3.128-11.156-6.4-15.213-6-9.986-.982-12.92,3.685-15.219,5.3-7.272,5.106-4.827,23.4-4.827,23.4a2.281,2.281,0,0,1,1.852.383,5.934,5.934,0,0,1,1.723,3,2.519,2.519,0,0,0,1.3,1.56s-1.741-7.279.046-10.519a16.14,16.14,0,0,1,3.341-4.747,8.318,8.318,0,0,0,.684,3.234c1.121,2.713,5.722,4.368,5.722,4.368s-3.387-1.871-2.048-4.142c.81-1.378,5.514-2.63,8.278-2.844,4.019-.314,5.888-1.71,6.664-3.121a8.6,8.6,0,0,1,2.211.946c3.329,2.111,4.291,4.3,5.394,6.306,1.79,3.24.05,10.519.05,10.519a2.515,2.515,0,0,0,1.3-1.56,5.94,5.94,0,0,1,1.726-3,2.274,2.274,0,0,1,1.849-.383S244.636,25.112,237.361,20.006Z" transform="translate(-177.334 0.063)" fill="#f8f7e0"/>
</svg>
