<svg xmlns="http://www.w3.org/2000/svg" viewBox="0 0 48.001 48">
  <path id="Exclusion_1" data-name="Exclusion 1" d="M108,193a23.926,23.926,0,1,1,9.342-1.886A23.851,23.851,0,0,1,108,193Zm-3.052-15.544V183H110.6v-5.544h-5.652Zm3.2-16.56a3.1,3.1,0,0,1,2.25.792,3.305,3.305,0,0,1,.81,2.448,2.96,2.96,0,0,1-.342,1.62,4.861,4.861,0,0,1-.99,1.188c-.4.355-.851.719-1.332,1.08a9.144,9.144,0,0,0-1.368,1.278,7.484,7.484,0,0,0-1.134,1.782,7.409,7.409,0,0,0-.594,2.592v1.62h4.86v-1.368a3.7,3.7,0,0,1,.7-1.8,7.22,7.22,0,0,1,1.278-1.278c.471-.365.986-.741,1.53-1.116a7.452,7.452,0,0,0,1.476-1.35,7.028,7.028,0,0,0,1.116-1.908,7.715,7.715,0,0,0,.45-2.844,6.5,6.5,0,0,0-.45-2.25,6.343,6.343,0,0,0-1.494-2.25,8.326,8.326,0,0,0-2.754-1.746,11.341,11.341,0,0,0-4.266-.7,9.3,9.3,0,0,0-3.582.666,7.991,7.991,0,0,0-2.736,1.854,8.5,8.5,0,0,0-1.764,2.808,10.336,10.336,0,0,0-.666,3.564h5.292a7.371,7.371,0,0,1,.216-1.818,4.406,4.406,0,0,1,.666-1.476,3.356,3.356,0,0,1,1.152-1.008A3.5,3.5,0,0,1,108.152,160.9Z" transform="translate(-84 -145)" fill="#4b36ac"/>
</svg>
