<svg xmlns="http://www.w3.org/2000/svg" xmlns:xlink="http://www.w3.org/1999/xlink" width="276.875" height="69.718" viewBox="0 0 276.875 69.718">
  <defs>
    <linearGradient id="linear-gradient" x1="0.5" x2="0.5" y2="0.673" gradientUnits="objectBoundingBox">
      <stop offset="0" stop-color="#4200f5"/>
      <stop offset="1" stop-color="#c400ff"/>
    </linearGradient>
  </defs>
  <path id="Intersection_1" data-name="Intersection 1" d="M48.534,65.673V47.729a4.1,4.1,0,0,1-.037.5,4.611,4.611,0,0,0,.036-.57V26.314a4.237,4.237,0,1,0-8.473,0V56.183a3.852,3.852,0,0,1-7.7,0V33.868a4.045,4.045,0,0,0-8.089,0V58.314a4.045,4.045,0,1,1-8.089,0V21.474a4.044,4.044,0,1,0-8.088,0V62.962a4.045,4.045,0,1,1-8.089,0V6A6,6,0,0,1,6,0H56.623V65.673a4.044,4.044,0,1,1-8.088,0ZM80.505,47.082V16.344a4.045,4.045,0,0,0-8.089.094V41.272a4.045,4.045,0,0,1-8.089,0V19.345a3.852,3.852,0,0,0-7.7-.071V0H80.5V0h2.089a6,6,0,0,1,6,6V47.082a4.044,4.044,0,1,1-8.088,0Z" transform="translate(88.593 69.718) rotate(180)" fill="url(#linear-gradient)"/>
  <path id="Tracé_1" data-name="Tracé 1" d="M25.157-1a6.491,6.491,0,0,1-2.2,5.146,9.063,9.063,0,0,1-6.162,1.925H2.379V-18.867H14.434a16.369,16.369,0,0,1,4.075.45,8.127,8.127,0,0,1,2.8,1.232,5.067,5.067,0,0,1,1.583,1.844,5.19,5.19,0,0,1,.522,2.321,5.92,5.92,0,0,1-.54,2.528,6.066,6.066,0,0,1-1.34,1.907,4.978,4.978,0,0,1-1.61,1.053,9.847,9.847,0,0,1,3.9,2.546A5.847,5.847,0,0,1,25.157-1Zm-8.78-10.688a2.411,2.411,0,0,0-1.188-2.393,8.712,8.712,0,0,0-3.706-.594H9.9V-8.7h1.619A8.557,8.557,0,0,0,15.235-9.3,2.437,2.437,0,0,0,16.377-11.688ZM17.6-1.306q0-3.2-4.642-3.2H9.9V1.878h3.059Q17.6,1.878,17.6-1.306ZM36.619-13.541a7.007,7.007,0,0,1-.477,2.474,7.611,7.611,0,0,1-1.493,2.4,8.646,8.646,0,0,1-2.663,1.943,12.613,12.613,0,0,1-3.841,1.116V-6.758q2.825-1.062,2.825-4.768V-11.9a3.437,3.437,0,0,1-2.825-3.545,3.633,3.633,0,0,1,.5-1.844,3.813,3.813,0,0,1,1.385-1.394,3.745,3.745,0,0,1,1.943-.522,3.991,3.991,0,0,1,2.582.846A5.018,5.018,0,0,1,36.115-16.2,7.382,7.382,0,0,1,36.619-13.541ZM59.9,6.071H41.1V-18.867H59.6v5H48.62V-9.3H59.091v5.02H48.62V1.051H59.9ZM89.337-18.867,78.091,6.394H73.125L62.1-18.867h7.827l5.7,14.394,5.866-14.394ZM111.557,6.071h-18.8V-18.867h18.5v5H100.276V-9.3h10.472v5.02H100.276V1.051h11.281Zm32.117,0h-6.693L124.044-7.82V6.071H116.6V-18.867h6.675l12.9,13.818V-18.867h7.5ZM173.848-12.8h-9.14V6.071h-7.5V-12.8h-9.14v-6.063h25.783Z" transform="translate(103.027 35.598)" fill="#efefef"/>
  <path id="Tracé_2" data-name="Tracé 2" d="M1.883,1.805H4.407a12.066,12.066,0,0,0,1.422-.073,2.634,2.634,0,0,0,1-.3A1.426,1.426,0,0,0,7.419.791a2.6,2.6,0,0,0,.2-1.1A2.206,2.206,0,0,0,7.4-1.368a1.512,1.512,0,0,0-.627-.62,2.924,2.924,0,0,0-.977-.3,9.14,9.14,0,0,0-1.269-.08H1.883Zm0-5.018H4.392a5.449,5.449,0,0,0,1.3-.131,2.2,2.2,0,0,0,.846-.387A1.426,1.426,0,0,0,7-4.358a2.435,2.435,0,0,0,.139-.853,1.97,1.97,0,0,0-.16-.839A1.271,1.271,0,0,0,6.463-6.6a2.6,2.6,0,0,0-.912-.306,8.461,8.461,0,0,0-1.379-.095H1.883ZM.891,2.651v-10.5H4.684a5.727,5.727,0,0,1,1.575.19,2.886,2.886,0,0,1,1.072.54,2.056,2.056,0,0,1,.605.839,2.94,2.94,0,0,1,.19,1.072,2.8,2.8,0,0,1-.146.955,2.123,2.123,0,0,1-.379.671,1.765,1.765,0,0,1-.532.423,2.228,2.228,0,0,1-.62.212v.029a2.372,2.372,0,0,1,1.627.861A2.808,2.808,0,0,1,8.608-.31a3.375,3.375,0,0,1-.255,1.386,2.358,2.358,0,0,1-.707.919,2.838,2.838,0,0,1-1.087.5,5.868,5.868,0,0,1-1.379.153Zm10.707,0v-10.5h6.987v.846h-6v3.793H18v.846H12.59V1.805h6.141v.846ZM31.522-2.965a4.3,4.3,0,0,0,1.028-.117,2.326,2.326,0,0,0,.824-.372,1.838,1.838,0,0,0,.554-.649,2.038,2.038,0,0,0,.2-.948,1.96,1.96,0,0,0-.212-.963,1.6,1.6,0,0,0-.569-.6,2.415,2.415,0,0,0-.817-.306,5.1,5.1,0,0,0-.955-.088H28.429v4.041Zm-3.093.846v4.77h-.992v-10.5h4.114a4.573,4.573,0,0,1,2.655.649,2.4,2.4,0,0,1,.919,2.108,2.739,2.739,0,0,1-.4,1.575,3.061,3.061,0,0,1-1.306.992,1.634,1.634,0,0,1,.729.467,2.071,2.071,0,0,1,.394.7,3.553,3.553,0,0,1,.168.831q.036.438.051.846.015.6.051.992a6.07,6.07,0,0,0,.088.642,1.5,1.5,0,0,0,.124.387.592.592,0,0,0,.175.212v.1H34.1a1.927,1.927,0,0,1-.226-.729q-.066-.467-.1-.977t-.058-.992a5.742,5.742,0,0,0-.08-.788,1.643,1.643,0,0,0-.284-.678,1.293,1.293,0,0,0-.474-.387,2.044,2.044,0,0,0-.62-.175,5.584,5.584,0,0,0-.708-.044Zm9.73,4.77v-10.5h6.987v.846h-6v3.793h5.412v.846H39.151V1.805h6.141v.846Zm8.928,0,4.128-10.5h1.123l4.026,10.5H55.344l-1.211-3.3H49.348l-1.24,3.3Zm2.6-4.143H53.8L51.74-7.006Zm9.073,4.143v-10.5h3.589q.438,0,.861.022a5.886,5.886,0,0,1,.832.1,4.16,4.16,0,0,1,.8.241,3.739,3.739,0,0,1,.751.423,3.19,3.19,0,0,1,.861.926,5.381,5.381,0,0,1,.532,1.152,6.758,6.758,0,0,1,.277,1.225,8.967,8.967,0,0,1,.08,1.145,8.815,8.815,0,0,1-.066,1.065,7.02,7.02,0,0,1-.212,1.058A5.45,5.45,0,0,1,66.671.5a3.812,3.812,0,0,1-.605.868,3.23,3.23,0,0,1-.8.656,4.121,4.121,0,0,1-.9.387,5.426,5.426,0,0,1-.985.19q-.511.051-1.036.051Zm.992-.846h2.378a9.389,9.389,0,0,0,1.262-.08,3.656,3.656,0,0,0,1.2-.4,2.377,2.377,0,0,0,.861-.715,3.934,3.934,0,0,0,.532-.985,5.28,5.28,0,0,0,.277-1.116,8.25,8.25,0,0,0,.08-1.123,9.461,9.461,0,0,0-.073-1.16A4.749,4.749,0,0,0,65.993-4.9a3.733,3.733,0,0,0-.554-.977,2.775,2.775,0,0,0-.9-.737,3.091,3.091,0,0,0-1.109-.321,11.489,11.489,0,0,0-1.3-.073H59.749Zm13.742-4.6,3.166-5.062h1.152L74-1.929V2.651h-.992V-1.856l-3.749-6H70.4ZM86.018,2.651v-10.5h6.769v.846H87.01v3.793h5.252v.846H87.01V2.651ZM94.8-2.586a7.22,7.22,0,0,1,.314-2.159A5.192,5.192,0,0,1,96.04-6.5a4.405,4.405,0,0,1,1.517-1.189,4.734,4.734,0,0,1,2.086-.438,5.058,5.058,0,0,1,2.152.43,4.348,4.348,0,0,1,1.546,1.182,5.112,5.112,0,0,1,.934,1.765,7.292,7.292,0,0,1,.314,2.166,7.1,7.1,0,0,1-.314,2.137,5.2,5.2,0,0,1-.926,1.751,4.369,4.369,0,0,1-1.532,1.189,4.9,4.9,0,0,1-2.13.438,4.9,4.9,0,0,1-2.13-.438A4.369,4.369,0,0,1,96.026,1.3a5.1,5.1,0,0,1-.919-1.751A7.254,7.254,0,0,1,94.8-2.586Zm4.9,4.668a3.737,3.737,0,0,0,1.758-.387A3.506,3.506,0,0,0,102.67.667a4.379,4.379,0,0,0,.7-1.488,6.808,6.808,0,0,0,.226-1.765,6.6,6.6,0,0,0-.27-1.962,4.256,4.256,0,0,0-.78-1.481,3.348,3.348,0,0,0-1.24-.934,4.015,4.015,0,0,0-1.634-.321,3.647,3.647,0,0,0-1.743.394,3.546,3.546,0,0,0-1.211,1.043,4.46,4.46,0,0,0-.7,1.5,6.808,6.808,0,0,0-.226,1.765,6.865,6.865,0,0,0,.226,1.78,4.379,4.379,0,0,0,.7,1.488A3.436,3.436,0,0,0,97.929,1.7,3.831,3.831,0,0,0,99.7,2.082Zm11.9-5.047a4.3,4.3,0,0,0,1.028-.117,2.326,2.326,0,0,0,.824-.372,1.838,1.838,0,0,0,.554-.649,2.037,2.037,0,0,0,.2-.948A1.96,1.96,0,0,0,114-6.014a1.6,1.6,0,0,0-.569-.6,2.415,2.415,0,0,0-.817-.306,5.1,5.1,0,0,0-.956-.088h-3.151v4.041Zm-3.093.846v4.77h-.992v-10.5h4.114a4.573,4.573,0,0,1,2.655.649,2.4,2.4,0,0,1,.919,2.108,2.739,2.739,0,0,1-.4,1.575,3.06,3.06,0,0,1-1.306.992,1.634,1.634,0,0,1,.729.467,2.071,2.071,0,0,1,.394.7,3.554,3.554,0,0,1,.168.831q.036.438.051.846.015.6.051.992a6.077,6.077,0,0,0,.088.642,1.5,1.5,0,0,0,.124.387.592.592,0,0,0,.175.212v.1h-1.094a1.927,1.927,0,0,1-.226-.729q-.066-.467-.1-.977T113.8-.047a5.744,5.744,0,0,0-.08-.788,1.643,1.643,0,0,0-.284-.678,1.293,1.293,0,0,0-.474-.387,2.044,2.044,0,0,0-.62-.175,5.584,5.584,0,0,0-.708-.044Zm15.65,4.77v-10.5h1.517l3.443,9.263h.029l3.384-9.263h1.5v10.5h-.992V-6.714h-.029l-3.443,9.365h-.934l-3.457-9.365h-.029V2.651Zm13.187-10.5h.992v6.258a4.344,4.344,0,0,0,.729,2.815,2.917,2.917,0,0,0,2.349.861,4.032,4.032,0,0,0,1.437-.226,2.191,2.191,0,0,0,.955-.686,2.864,2.864,0,0,0,.525-1.145,7.176,7.176,0,0,0,.16-1.619V-7.852h.992V-1.3a4.444,4.444,0,0,1-1.014,3.144,3.984,3.984,0,0,1-3.056,1.087,3.935,3.935,0,0,1-3.063-1.109A4.48,4.48,0,0,1,137.349-1.3Zm11.9,7.367A3.112,3.112,0,0,0,149.566.7a2.353,2.353,0,0,0,.656.8,2.6,2.6,0,0,0,.926.445,4.388,4.388,0,0,0,1.123.139,3.743,3.743,0,0,0,1.211-.175,2.29,2.29,0,0,0,.831-.474,1.859,1.859,0,0,0,.474-.693,2.274,2.274,0,0,0,.153-.831,1.642,1.642,0,0,0-.277-.992,2.138,2.138,0,0,0-.722-.62,4.42,4.42,0,0,0-1.021-.387q-.576-.146-1.182-.284T150.558-2.7a3.719,3.719,0,0,1-1.021-.511,2.467,2.467,0,0,1-.722-.824,2.625,2.625,0,0,1-.277-1.276,2.569,2.569,0,0,1,.226-1.05,2.616,2.616,0,0,1,.671-.9,3.293,3.293,0,0,1,1.116-.627,4.7,4.7,0,0,1,1.546-.233,4.432,4.432,0,0,1,1.554.248,3.085,3.085,0,0,1,1.1.678,2.792,2.792,0,0,1,.656,1,3.344,3.344,0,0,1,.219,1.211h-.948a2.358,2.358,0,0,0-.212-1.036,1.943,1.943,0,0,0-.576-.715,2.46,2.46,0,0,0-.831-.408,3.539,3.539,0,0,0-.963-.131,3.385,3.385,0,0,0-1.276.212,2.242,2.242,0,0,0-.824.547,1.847,1.847,0,0,0-.423.744,1.79,1.79,0,0,0-.044.817,1.425,1.425,0,0,0,.408.817,2.577,2.577,0,0,0,.788.5,5.936,5.936,0,0,0,1.028.321q.562.124,1.145.263a11.713,11.713,0,0,1,1.131.328,3.475,3.475,0,0,1,.97.511,2.352,2.352,0,0,1,.678.824,2.776,2.776,0,0,1,.255,1.262,2.726,2.726,0,0,1-1.007,2.261,4.435,4.435,0,0,1-2.83.8,5.224,5.224,0,0,1-1.517-.212,3.361,3.361,0,0,1-1.211-.642,2.948,2.948,0,0,1-.8-1.065,3.63,3.63,0,0,1-.284-1.5Zm9.832,3.136v-10.5h.992v10.5ZM171.222-4.8a3.005,3.005,0,0,0-1.138-1.911,3.777,3.777,0,0,0-2.174-.569,3.325,3.325,0,0,0-1.634.379,3.3,3.3,0,0,0-1.131,1.021A4.507,4.507,0,0,0,164.49-4.4a7.225,7.225,0,0,0-.212,1.772,8.147,8.147,0,0,0,.182,1.721A4.576,4.576,0,0,0,165.066.6,3.215,3.215,0,0,0,166.2,1.674,3.575,3.575,0,0,0,168,2.082a3.31,3.31,0,0,0,1.225-.219,3.057,3.057,0,0,0,.97-.605,3.528,3.528,0,0,0,.7-.912,4.59,4.59,0,0,0,.43-1.152h1.036a6.552,6.552,0,0,1-.511,1.437,4.1,4.1,0,0,1-.883,1.189,4.035,4.035,0,0,1-1.327.81,5.106,5.106,0,0,1-1.831.3,4.462,4.462,0,0,1-2.071-.445,3.933,3.933,0,0,1-1.408-1.2,5.051,5.051,0,0,1-.8-1.758,8.786,8.786,0,0,1-.248-2.123,7.69,7.69,0,0,1,.372-2.553,4.558,4.558,0,0,1,1.028-1.714,3.886,3.886,0,0,1,1.546-.963,6.056,6.056,0,0,1,1.94-.3,5.1,5.1,0,0,1,1.5.212,3.671,3.671,0,0,1,1.225.635,3.444,3.444,0,0,1,.875,1.043,4.385,4.385,0,0,1,.474,1.437Z" transform="translate(104.515 61.789)" fill="#efefef"/>
  <path id="Tracé_6" data-name="Tracé 6" d="M25.157-1a6.491,6.491,0,0,1-2.2,5.146,9.063,9.063,0,0,1-6.162,1.925H2.379V-18.867H14.434a16.369,16.369,0,0,1,4.075.45,8.127,8.127,0,0,1,2.8,1.232,5.067,5.067,0,0,1,1.583,1.844,5.19,5.19,0,0,1,.522,2.321,5.92,5.92,0,0,1-.54,2.528,6.066,6.066,0,0,1-1.34,1.907,4.978,4.978,0,0,1-1.61,1.053,9.847,9.847,0,0,1,3.9,2.546A5.847,5.847,0,0,1,25.157-1Zm-8.78-10.688a2.411,2.411,0,0,0-1.188-2.393,8.712,8.712,0,0,0-3.706-.594H9.9V-8.7h1.619A8.557,8.557,0,0,0,15.235-9.3,2.437,2.437,0,0,0,16.377-11.688ZM17.6-1.306q0-3.2-4.642-3.2H9.9V1.878h3.059Q17.6,1.878,17.6-1.306ZM36.619-13.541a7.007,7.007,0,0,1-.477,2.474,7.611,7.611,0,0,1-1.493,2.4,8.646,8.646,0,0,1-2.663,1.943,12.613,12.613,0,0,1-3.841,1.116V-6.758q2.825-1.062,2.825-4.768V-11.9a3.437,3.437,0,0,1-2.825-3.545,3.633,3.633,0,0,1,.5-1.844,3.813,3.813,0,0,1,1.385-1.394,3.745,3.745,0,0,1,1.943-.522,3.991,3.991,0,0,1,2.582.846A5.018,5.018,0,0,1,36.115-16.2,7.382,7.382,0,0,1,36.619-13.541ZM59.9,6.071H41.1V-18.867H59.6v5H48.62V-9.3H59.091v5.02H48.62V1.051H59.9ZM89.337-18.867,78.091,6.394H73.125L62.1-18.867h7.827l5.7,14.394,5.866-14.394ZM111.557,6.071h-18.8V-18.867h18.5v5H100.276V-9.3h10.472v5.02H100.276V1.051h11.281Zm32.117,0h-6.693L124.044-7.82V6.071H116.6V-18.867h6.675l12.9,13.818V-18.867h7.5ZM173.848-12.8h-9.14V6.071h-7.5V-12.8h-9.14v-6.063h25.783Z" transform="translate(103.027 35.598)" fill="#efefef"/>
</svg>
